<?xml version="1.0" standalone="no"?>
<!DOCTYPE svg PUBLIC "-//W3C//DTD SVG 20010904//EN"
 "http://www.w3.org/TR/2001/REC-SVG-20010904/DTD/svg10.dtd">
<svg version="1.0" xmlns="http://www.w3.org/2000/svg"
 width="1536.000000pt" height="1024.000000pt" viewBox="0 0 1536.000000 1024.000000"
 preserveAspectRatio="xMidYMid meet">

<g transform="translate(0.000000,1024.000000) scale(0.100000,-0.100000)"
fill="#000000" stroke="none">
<path d="M14941 9511 c-17 -30 -13 -48 10 -54 23 -6 32 9 27 44 -4 30 -24 35
-37 10z"/>
<path d="M12280 9470 c0 -4 18 -19 40 -34 22 -14 40 -27 40 -29 0 -1 -20 -1
-46 1 -33 3 -50 -1 -65 -14 -11 -10 -39 -19 -62 -20 -23 -2 -45 -3 -49 -3 -3
-1 -19 -12 -35 -25 -38 -32 -199 -102 -266 -116 -30 -6 -68 -8 -83 -5 -26 6
-27 5 -11 -8 24 -20 21 -27 -13 -27 -37 0 -85 23 -99 47 -9 17 -10 17 -17 -1
-4 -10 -3 -37 3 -58 9 -32 8 -38 -3 -34 -21 8 -17 -27 6 -57 l20 -25 -23 -6
c-35 -9 -60 -7 -90 8 -25 14 -26 14 -17 -4 5 -10 15 -21 22 -23 8 -3 6 -6 -4
-6 -21 -1 -42 34 -35 60 3 10 1 17 -4 13 -12 -7 -11 -61 1 -69 6 -3 10 -12 10
-18 -1 -21 -40 34 -41 57 0 14 -2 16 -6 6 -3 -8 -12 -23 -20 -32 -13 -15 -13
-22 0 -63 15 -43 15 -45 -3 -45 -10 0 -22 5 -26 11 -4 8 -12 3 -20 -12 -13
-24 -13 -24 -15 11 l-1 35 -8 -31 c-4 -18 -11 -40 -15 -50 -7 -16 -9 -15 -15
11 -7 30 -7 30 -34 -27 -15 -32 -30 -58 -33 -58 -3 0 -3 19 0 43 5 37 4 40 -8
23 -22 -30 -47 -156 -40 -203 7 -46 -2 -54 -28 -25 -23 25 -30 65 -19 106 6
20 9 36 6 36 -14 0 -37 -74 -41 -136 -8 -102 -19 -97 -46 21 -3 11 -5 -9 -5
-45 -1 -36 5 -82 12 -102 16 -44 0 -40 -20 6 -7 17 -13 24 -14 16 0 -32 48
-102 100 -145 30 -25 61 -45 67 -45 18 0 16 -17 -3 -24 -34 -13 -73 -6 -84 15
-7 11 -14 18 -18 15 -8 -8 38 -56 54 -56 7 0 19 -7 28 -15 11 -12 21 -13 41
-5 35 13 35 13 35 -14 0 -13 8 -32 18 -43 9 -10 14 -14 11 -8 -16 28 -17 46
-3 60 22 21 33 19 46 -10 6 -14 14 -25 17 -25 3 0 15 20 26 45 20 45 35 58 35
30 0 -9 22 -48 48 -88 68 -102 67 -101 52 -92 -8 5 -2 -13 12 -38 15 -26 22
-47 15 -47 -25 0 51 -61 120 -96 41 -20 81 -47 90 -60 20 -31 42 -106 53 -177
5 -31 23 -86 40 -122 17 -36 29 -69 26 -74 -3 -5 1 -22 9 -37 8 -16 15 -34 15
-41 0 -16 14 -24 51 -28 28 -4 30 -2 25 23 -3 15 -2 33 3 41 8 12 12 13 26 1
14 -11 19 -10 37 8 l22 21 -33 52 c-22 37 -34 68 -36 103 -5 65 7 121 25 121
8 0 16 9 18 20 2 11 10 27 17 35 21 24 28 85 14 124 -24 65 12 131 79 148 64
17 162 -55 212 -157 24 -47 25 -59 25 -221 l0 -171 -32 -51 c-18 -29 -37 -70
-43 -92 -11 -39 -30 -56 -77 -69 l-23 -6 24 -28 c35 -40 116 -58 116 -26 0 5
4 9 10 9 5 0 7 -6 4 -14 -6 -15 33 -43 43 -32 6 5 15 50 30 134 3 18 9 34 13
37 5 3 6 37 3 75 -4 58 -3 70 10 70 12 0 14 9 10 41 -4 29 -2 44 8 51 11 7 11
11 2 15 -15 6 -17 61 -3 83 8 13 11 13 26 -1 24 -25 25 -167 2 -180 -20 -11
-13 -39 9 -39 8 0 11 -5 8 -10 -6 -10 25 -59 61 -94 8 -9 10 -16 4 -16 -6 0 8
-25 31 -55 23 -30 45 -55 49 -55 5 0 18 -16 30 -36 14 -21 28 -33 36 -30 9 3
14 -2 14 -15 0 -14 9 -21 30 -25 21 -5 30 -12 30 -25 0 -12 7 -19 20 -19 11 0
20 -4 20 -10 0 -5 -10 -10 -21 -10 -19 0 -20 -2 -8 -16 12 -15 11 -16 -8 -10
-15 5 -25 1 -35 -13 -14 -20 -302 -171 -325 -171 -7 0 -13 -4 -13 -9 0 -13
-32 -23 -41 -14 -5 5 -9 64 -10 131 -2 102 -5 122 -16 117 -8 -3 -17 -5 -19
-5 -2 0 -4 -6 -4 -14 0 -21 -23 -34 -45 -25 -11 4 -14 8 -7 8 20 1 14 28 -8
34 -13 3 -20 0 -20 -9 0 -8 -4 -14 -10 -14 -11 0 -1 32 14 43 18 12 -24 31
-71 33 -48 2 -48 -11 0 -25 l32 -9 -28 -1 c-20 -1 -31 -7 -34 -20 -4 -16 -11
-19 -41 -15 -35 5 -36 5 -18 -10 11 -9 28 -16 38 -16 30 0 6 -44 -28 -50 -17
-3 -29 -12 -29 -20 0 -8 -4 -21 -8 -27 -5 -7 -6 -17 -2 -23 3 -5 0 -18 -7 -30
-10 -16 -10 -24 0 -40 10 -17 9 -20 -11 -25 -12 -2 -31 -4 -41 -2 -15 1 -20
-4 -20 -23 -1 -14 -5 -31 -9 -37 -5 -7 -6 -17 -2 -22 10 -17 -15 -23 -49 -11
-18 6 -39 21 -45 34 -8 15 -20 22 -30 19 -20 -5 -44 38 -35 62 11 28 -5 60
-36 74 -47 20 -63 -2 -20 -28 19 -11 37 -18 42 -15 13 8 9 -4 -8 -32 -10 -14
-23 -23 -30 -20 -8 3 -18 -3 -23 -12 -10 -16 -10 -16 -11 0 0 9 -8 31 -17 50
-9 18 -21 42 -26 53 -47 93 -59 113 -79 131 -29 27 -90 37 -115 19 -11 -8 -30
-11 -47 -8 -22 5 -28 3 -24 -8 6 -18 83 -48 125 -48 29 -1 32 -4 43 -53 16
-67 21 -73 75 -89 36 -11 45 -18 45 -36 0 -12 5 -25 10 -28 6 -4 8 -11 4 -16
-3 -5 4 -26 15 -45 23 -38 15 -74 -14 -74 -20 0 -19 -9 5 -47 19 -31 19 -37 6
-100 -13 -59 -13 -71 1 -96 13 -26 13 -30 -4 -42 -15 -11 -76 -39 -159 -72
-10 -4 -54 86 -54 110 0 6 -26 65 -58 131 -32 67 -67 146 -77 176 -9 30 -27
66 -39 79 -27 31 -141 121 -189 150 -34 21 -41 33 -49 86 -2 11 -12 21 -22 23
-10 2 -36 22 -56 44 -38 39 -38 39 -106 36 -79 -4 -93 -21 -53 -64 12 -13 17
-24 11 -24 -6 0 -13 4 -16 9 -4 5 -26 19 -49 30 -34 17 -51 34 -78 83 -28 51
-40 64 -64 68 -23 4 -30 10 -30 30 0 25 0 25 -110 27 -60 1 -122 5 -137 9 -18
4 -28 2 -28 -5 0 -6 11 -11 24 -11 28 0 56 -9 56 -19 0 -3 -33 -7 -73 -8 -79
-2 -168 -20 -293 -59 l-81 -25 -20 -52 c-12 -29 -23 -60 -27 -69 -3 -10 -12
-18 -20 -18 -43 0 -66 -24 -86 -88 -11 -35 -20 -76 -20 -91 0 -18 -3 -22 -9
-12 -6 10 -16 -1 -34 -40 -22 -47 -25 -50 -26 -26 -1 23 17 85 44 148 5 14 -3
13 -61 -7 -76 -26 -146 -86 -163 -138 -8 -26 -8 -28 2 -12 7 11 26 34 42 51
17 17 23 22 14 11 -41 -51 -47 -105 -11 -91 12 4 11 0 -4 -16 -13 -16 -15 -23
-6 -26 18 -7 14 -38 -8 -58 -18 -16 -20 -16 -26 -1 -8 20 -28 21 -44 1 -33
-40 -33 7 0 97 21 55 9 54 -20 0 -10 -20 -19 -31 -20 -24 0 20 37 72 79 109
38 34 27 44 -21 19 -17 -9 -28 -10 -30 -4 -3 7 -18 6 -45 -1 -44 -12 -93 -59
-121 -117 -11 -24 -22 -34 -39 -34 -40 0 -58 -50 -58 -166 0 -100 1 -103 44
-188 45 -88 115 -166 150 -166 18 0 25 -31 52 -230 6 -47 15 -101 20 -120 9
-36 86 -172 101 -178 4 -2 8 -10 8 -19 0 -8 7 -27 16 -43 16 -26 16 -28 -4
-48 -32 -32 -47 -66 -92 -217 -95 -315 -132 -470 -135 -570 -1 -47 -12 -84
-49 -170 -34 -79 -45 -117 -41 -137 4 -18 0 -36 -14 -55 -21 -29 -61 -206 -61
-268 0 -20 -14 -88 -31 -151 -21 -79 -30 -135 -29 -182 1 -76 -13 -219 -35
-337 -29 -164 -30 -133 10 -375 8 -47 17 -103 21 -125 9 -57 70 -263 93 -317
19 -45 126 -194 185 -256 79 -86 202 -133 380 -148 139 -11 352 20 468 69 21
9 40 12 42 8 3 -5 1 -35 -5 -67 -5 -32 -18 -113 -29 -179 -16 -108 -101 -460
-165 -685 -29 -101 -70 -288 -85 -384 -6 -38 -20 -107 -30 -153 -11 -46 -20
-98 -20 -116 0 -18 -12 -59 -26 -92 -14 -33 -34 -89 -44 -125 -47 -164 -139
-549 -140 -582 0 -17 111 -18 2190 -18 l2190 0 -6 27 c-4 16 -10 35 -14 43
-14 31 -4 82 20 100 19 15 22 21 12 32 -15 19 -3 32 15 17 10 -9 13 -8 13 5 0
9 8 16 18 16 20 0 57 29 65 50 4 11 7 9 12 -8 8 -25 20 -29 29 -7 4 11 11 13
30 5 14 -5 27 -6 29 -2 12 21 17 107 23 403 5 274 4 332 -9 360 -8 19 -19 60
-25 92 -10 55 -9 63 27 170 90 266 124 383 157 527 9 41 23 95 30 120 7 25 20
79 30 120 30 134 52 212 104 365 28 83 55 170 59 195 4 25 43 180 85 345 81
313 129 541 140 660 14 140 57 437 76 520 5 22 18 101 29 175 10 74 24 171 31
215 25 174 15 555 -16 617 -8 15 -14 42 -14 60 0 18 -14 71 -30 118 -17 46
-30 91 -30 100 0 21 -87 193 -127 252 -23 34 -29 52 -25 79 2 20 -6 81 -17
137 -12 55 -21 108 -21 116 0 32 -150 398 -171 416 -34 30 -101 137 -164 262
-108 213 -118 227 -206 273 -41 21 -48 31 -69 86 -31 87 -106 160 -225 221
-105 54 -144 65 -275 82 l-95 12 3 48 c2 26 11 64 19 84 8 19 18 70 22 113 6
57 14 83 30 100 11 12 21 19 22 13 1 -21 29 71 35 119 4 28 16 65 26 83 10 17
21 62 25 98 4 41 9 62 14 54 5 -7 6 34 4 92 -4 70 -2 98 4 85 19 -40 12 58 -9
125 -12 36 -23 106 -26 155 -3 50 -13 113 -21 140 -18 57 -68 137 -112 179
-17 16 -28 33 -25 37 2 4 -16 22 -41 39 -25 17 -62 57 -83 88 -73 111 -96 137
-154 174 -32 21 -78 41 -101 44 -74 12 -99 36 -54 54 20 8 19 9 -10 9 -30 1
-33 4 -33 31 0 25 -4 30 -25 30 -27 0 -32 9 -14 27 8 8 8 13 0 18 -15 9 -67
-34 -81 -67 -16 -35 -22 -35 -44 3 -18 31 -90 89 -110 89 -6 0 3 -9 21 -21 26
-16 63 -79 63 -106 0 -3 -22 15 -50 41 -27 25 -56 46 -65 46 -9 0 -51 12 -93
26 -66 23 -97 27 -224 29 -82 2 -157 8 -170 15 -22 11 -22 10 -4 -4 11 -9 23
-16 28 -16 4 0 8 -5 8 -11 0 -17 -106 -4 -169 20 -28 10 -51 16 -51 11z m445
-70 l20 -9 -20 0 c-11 0 -29 4 -40 9 l-20 9 20 0 c11 0 29 -4 40 -9z m-195 -4
c0 -3 -4 -8 -10 -11 -5 -3 -10 -1 -10 4 0 6 5 11 10 11 6 0 10 -2 10 -4z m704
-54 c8 -13 -8 -65 -21 -69 -16 -6 -24 24 -13 52 10 25 24 32 34 17z m36 -66
c0 -7 -7 -19 -15 -26 -16 -13 -20 -3 -9 24 8 20 24 21 24 2z m321 -258 c17
-31 2 -19 -32 25 -30 39 -31 40 -5 17 15 -14 32 -33 37 -42z m-361 -110 c27
-31 35 -65 22 -93 -8 -18 -18 -22 -44 -21 -29 1 -37 8 -60 51 -15 28 -28 60
-28 72 0 20 4 21 45 18 33 -3 52 -11 65 -27z m634 -293 c5 -32 3 -28 -14 20
-23 70 -24 79 -5 45 7 -14 16 -43 19 -65z m-2659 14 c11 -17 -1 -21 -15 -4 -8
9 -8 15 -2 15 6 0 14 -5 17 -11z m2672 -111 c-3 -7 -5 -2 -5 12 0 14 2 19 5
13 2 -7 2 -19 0 -25z m-271 -475 c10 -15 10 -21 -3 -35 -20 -23 -62 -23 -70
-1 -4 10 2 23 16 35 29 23 40 23 57 1z m-3334 -835 c-7 -7 -12 -8 -12 -2 0 14
12 26 19 19 2 -3 -1 -11 -7 -17z m38 12 c0 -5 -4 -10 -10 -10 -5 0 -10 5 -10
10 0 6 5 10 10 10 6 0 10 -4 10 -10z m-175 -20 c-3 -5 -13 -10 -21 -10 -8 0
-14 5 -14 10 0 6 9 10 21 10 11 0 17 -4 14 -10z m120 -21 c14 -13 -25 -10 -65
6 l-35 14 45 -6 c25 -3 49 -9 55 -14z m415 -3 c0 -3 -4 -8 -10 -11 -5 -3 -10
-1 -10 4 0 6 5 11 10 11 6 0 10 -2 10 -4z m60 -11 c0 -9 -6 -12 -15 -9 -8 4
-15 10 -15 15 0 5 7 9 15 9 8 0 15 -7 15 -15z m1540 -45 c-18 -12 -50 -13 -50
-2 0 4 15 9 33 10 24 2 28 0 17 -8z m-1365 -29 c3 -5 1 -12 -4 -15 -5 -3 -11
1 -15 9 -6 16 9 21 19 6z m-713 -63 c-7 -7 -12 -8 -12 -2 0 14 12 26 19 19 2
-3 -1 -11 -7 -17z m1478 12 c0 -5 -5 -10 -11 -10 -5 0 -7 5 -4 10 3 6 8 10 11
10 2 0 4 -4 4 -10z m-1060 -20 c0 -5 -7 -10 -16 -10 -8 0 -12 5 -9 10 3 6 10
10 16 10 5 0 9 -4 9 -10z m260 -10 c0 -5 -4 -10 -10 -10 -5 0 -10 5 -10 10 0
6 5 10 10 10 6 0 10 -4 10 -10z m-1081 -37 c-6 -16 -21 -66 -34 -113 -17 -61
-24 -76 -24 -53 -1 42 49 193 64 193 3 0 0 -12 -6 -27z m151 -27 c0 -3 -4 -8
-10 -11 -5 -3 -10 -1 -10 4 0 6 5 11 10 11 6 0 10 -2 10 -4z m-407 -38 c-12
-13 -36 -47 -54 -77 -27 -45 -34 -51 -40 -35 -10 28 16 70 63 104 49 36 59 38
31 8z m1170 -26 l188 -2 -3 -32 c-3 -37 -27 -48 -51 -24 -20 20 -27 11 -27
-35 0 -47 8 -69 26 -69 8 0 14 -9 14 -20 0 -11 -6 -20 -14 -20 -11 0 -13 -14
-8 -65 3 -45 1 -65 -7 -65 -7 0 -11 20 -11 54 0 98 -6 110 -58 123 -59 14 -72
4 -72 -55 l0 -45 -62 7 c-34 3 -72 13 -84 21 -22 14 -24 13 -35 -6 -9 -18 -7
-25 13 -45 22 -22 27 -23 82 -14 32 5 65 12 74 15 15 4 17 -5 18 -61 l2 -65
-55 -40 c-54 -40 -55 -40 -118 -34 l-63 7 -8 76 c-5 53 -3 81 5 95 8 11 8 16
2 12 -18 -11 -12 17 7 31 14 10 15 15 5 25 -10 10 -13 10 -13 1 0 -7 -4 -12
-9 -12 -5 0 -16 39 -26 88 -9 48 -21 100 -26 116 -5 15 -7 31 -5 35 3 4 33 6
68 6 35 -1 148 -2 251 -3z m1161 -118 c9 -3 16 -12 16 -20 0 -8 6 -14 13 -14
8 0 7 -4 -3 -10 -21 -13 -33 -12 -24 2 5 7 2 9 -9 5 -9 -3 -18 1 -21 9 -13 33
-5 41 28 28z m1902 -22 c16 -10 26 -46 18 -65 -8 -22 -66 -47 -92 -40 -39 10
-25 74 21 97 37 18 38 18 53 8z m-3036 -75 c0 -5 -4 -5 -10 -2 -5 3 -10 14
-10 23 0 15 2 15 10 2 5 -8 10 -19 10 -23z m1077 -34 c-3 -10 -5 -4 -5 12 0
17 2 24 5 18 2 -7 2 -21 0 -30z m-1052 7 c3 -5 -1 -10 -9 -10 -9 0 -16 5 -16
10 0 6 4 10 9 10 6 0 13 -4 16 -10z m-3 -75 c0 -5 -5 -11 -11 -13 -6 -2 -11 4
-11 13 0 9 5 15 11 13 6 -2 11 -8 11 -13z m3228 -45 c0 -11 -4 -20 -10 -20 -5
0 -10 2 -10 4 0 2 -3 11 -6 20 -4 11 -1 16 10 16 9 0 16 -8 16 -20z m-3137 -2
c21 -11 21 -11 2 -18 -24 -9 -35 -4 -35 16 0 17 5 17 33 2z m57 -83 c0 -16 -6
-25 -15 -25 -9 0 -15 9 -15 25 0 16 6 25 15 25 9 0 15 -9 15 -25z m-63 -1 c6
-16 -15 -37 -28 -28 -10 6 1 44 12 44 6 0 12 -7 16 -16z m-77 -9 c0 -10 -10
-15 -30 -15 -47 0 -35 27 13 29 9 1 17 -6 17 -14z m184 -484 c40 -33 80 -71
89 -85 9 -14 37 -39 62 -56 l45 -31 -73 -73 -72 -73 -25 22 c-14 13 -57 43
-97 68 -64 41 -72 49 -78 86 -4 22 -22 72 -40 110 l-34 71 27 6 c15 3 32 7 37
9 6 2 27 4 48 4 33 1 50 -8 111 -58z m-313 -72 c18 -29 60 -73 93 -99 54 -43
63 -55 78 -108 10 -33 38 -90 62 -127 l45 -67 -15 -41 c-9 -23 -19 -60 -24
-82 -4 -22 -19 -65 -32 -95 -14 -30 -29 -70 -33 -88 -8 -41 -34 -52 -117 -52
l-61 0 7 175 c8 204 5 213 -74 293 l-52 53 17 62 c10 34 18 99 19 144 1 83 1
83 27 83 21 0 34 -11 60 -51z m2883 -426 c55 -58 60 -90 17 -116 -38 -22 -63
-21 -95 4 -28 22 -34 58 -17 102 8 21 37 57 46 57 2 0 24 -21 49 -47z m-614
-27 c0 -2 -7 -6 -15 -10 -8 -3 -15 -1 -15 4 0 6 7 10 15 10 8 0 15 -2 15 -4z
m-2167 -323 c4 -4 -4 -18 -17 -32 -14 -14 -34 -52 -46 -84 -12 -32 -23 -57
-25 -55 -2 2 -5 39 -6 83 l-4 80 35 6 c52 9 56 10 63 2z m3319 -196 l37 -23
-30 -11 c-33 -13 -59 3 -59 38 0 24 6 24 52 -4z m-3116 -100 c27 -24 26 -47
-2 -47 -29 0 -74 30 -74 50 0 28 42 26 76 -3z m1657 -9 c71 -37 56 -122 -28
-162 -96 -46 -193 56 -120 124 49 46 107 61 148 38z m527 -273 c0 -8 -6 -15
-14 -15 -8 0 -16 7 -20 15 -4 10 1 15 14 15 11 0 20 -7 20 -15z m-802 -152
c-4 -20 -45 -30 -60 -15 -16 16 1 32 33 32 24 0 30 -4 27 -17z m724 -210 c24
-21 23 -50 -1 -63 -27 -14 -28 -13 -46 14 -13 19 -14 29 -5 45 13 25 27 26 52
4z m-2106 -234 c14 -15 16 -24 8 -37 -28 -43 -116 -39 -122 6 -3 17 4 26 30
37 45 20 62 18 84 -6z m3612 -415 c27 -31 28 -68 2 -94 -28 -28 -57 -25 -91 9
-33 34 -39 80 -12 106 22 23 71 13 101 -21z m-832 -125 c10 -17 -13 -36 -27
-22 -12 12 -4 33 11 33 5 0 12 -5 16 -11z m-1648 -30 c4 -35 -23 -58 -44 -37
-12 12 -13 19 -3 42 15 33 43 30 47 -5z m2670 -562 c4 -35 -22 -67 -54 -67
-43 0 -44 67 -1 88 34 17 52 10 55 -21z m-850 -413 c43 -30 18 -100 -52 -143
-45 -28 -91 -27 -121 4 -29 28 -31 45 -10 86 32 61 131 90 183 53z m-2748
-299 c-18 -21 -40 -19 -40 4 0 13 8 21 23 23 26 4 33 -7 17 -27z m1741 -525
c26 0 48 -26 49 -57 0 -17 -6 -23 -22 -23 -32 0 -87 36 -97 63 -10 26 5 40 30
26 10 -5 28 -9 40 -9z m-567 -186 c9 -24 8 -31 -10 -48 -22 -22 -61 -20 -74 4
-8 15 -6 24 10 40 24 24 65 26 74 4z m-628 -460 c-3 -9 -6 -19 -6 -24 0 -11
-77 -23 -91 -14 -8 5 3 15 32 30 54 27 73 29 65 8z m1638 -79 c-5 -13 -44 -9
-44 4 0 14 11 19 30 14 10 -3 16 -11 14 -18z m370 -51 c20 -19 20 -34 0 -62
-18 -26 -37 -28 -58 -6 -21 21 -20 40 4 64 24 24 34 25 54 4z m-486 -214 c41
-38 40 -99 0 -121 -40 -21 -73 -21 -97 2 -20 18 -22 29 -18 66 8 69 68 97 115
53z m742 -67 c0 -16 -9 -27 -26 -35 -22 -11 -28 -10 -40 7 -18 24 -18 24 6 63
l21 34 19 -23 c11 -12 20 -33 20 -46z m354 20 c3 -10 8 -22 11 -28 5 -11 -81
-12 -91 -2 -6 6 54 47 67 47 4 0 9 -8 13 -17z m-129 -53 c3 -5 1 -10 -4 -10
-6 0 -11 5 -11 10 0 6 2 10 4 10 3 0 8 -4 11 -10z m-563 -50 c5 0 6 -4 3 -10
-3 -5 -20 -10 -36 -10 -33 0 -48 22 -29 45 10 12 15 11 33 -5 11 -11 25 -20
29 -20z m-1778 -128 c8 -28 6 -36 -13 -55 -16 -17 -25 -19 -38 -11 -25 16 -34
59 -16 84 22 31 55 22 67 -18z m2054 -5 c9 -10 7 -17 -7 -29 -10 -9 -21 -22
-25 -29 -5 -11 -7 -11 -12 -1 -3 6 -17 12 -30 12 -24 0 -24 1 8 30 37 33 50
36 66 17z m309 -67 c-38 -33 -52 -37 -60 -16 -4 9 0 12 12 9 9 -2 27 5 40 16
13 12 28 21 33 21 5 0 -7 -13 -25 -30z m-2059 -102 c-6 -18 -28 -21 -28 -4 0
9 7 16 16 16 9 0 14 -5 12 -12z m-603 -58 c3 -5 1 -10 -4 -10 -6 0 -11 5 -11
10 0 6 2 10 4 10 3 0 8 -4 11 -10z"/>
<path d="M10860 6841 c0 -6 4 -13 10 -16 6 -3 7 1 4 9 -7 18 -14 21 -14 7z"/>
<path d="M14910 9421 c0 -10 -9 -21 -20 -24 -21 -5 -29 -29 -8 -24 18 3 39
-45 34 -80 -3 -18 0 -33 5 -33 13 0 17 15 22 83 3 41 0 57 -9 57 -7 0 -10 8
-7 20 3 11 0 20 -6 20 -6 0 -11 -8 -11 -19z"/>
<path d="M15161 9259 c-13 -17 -20 -37 -16 -46 5 -14 7 -14 19 3 12 18 30 74
23 74 -2 0 -13 -14 -26 -31z"/>
<path d="M15250 9166 c0 -2 7 -6 15 -10 8 -3 15 -1 15 4 0 6 -7 10 -15 10 -8
0 -15 -2 -15 -4z"/>
<path d="M445 9140 c3 -5 8 -10 11 -10 2 0 4 5 4 10 0 6 -5 10 -11 10 -5 0 -7
-4 -4 -10z"/>
<path d="M14440 9044 c0 -8 5 -12 10 -9 6 3 10 10 10 16 0 5 -4 9 -10 9 -5 0
-10 -7 -10 -16z"/>
<path d="M545 8980 c3 -5 8 -10 11 -10 2 0 4 5 4 10 0 6 -5 10 -11 10 -5 0 -7
-4 -4 -10z"/>
<path d="M14895 8967 c-10 -23 -6 -26 36 -32 32 -5 33 -5 7 6 -15 5 -29 18
-31 27 -4 16 -5 15 -12 -1z"/>
<path d="M15157 8939 c-4 -13 -7 -36 -7 -51 0 -28 -21 -50 -28 -30 -2 7 -11
12 -20 12 -13 -1 -10 -6 11 -23 34 -28 34 -41 0 -73 l-27 -25 20 -20 20 -20
28 73 c16 40 33 83 39 96 8 17 8 25 0 30 -7 4 -16 18 -21 32 l-9 24 -6 -25z"/>
<path d="M561 8934 c0 -11 3 -14 6 -6 3 7 2 16 -1 19 -3 4 -6 -2 -5 -13z"/>
<path d="M14670 8942 c0 -13 23 -32 39 -32 11 0 10 4 -4 20 -19 21 -35 26 -35
12z"/>
<path d="M14782 8941 c-7 -4 -12 -12 -10 -17 1 -5 -4 -19 -11 -32 -12 -22 -11
-23 15 -20 20 2 28 9 31 27 2 14 8 30 14 38 9 10 7 13 -7 13 -11 0 -25 -4 -32
-9z"/>
<path d="M14980 8881 c0 -5 7 -14 15 -21 13 -11 13 -15 3 -21 -8 -6 -2 -9 17
-9 20 1 36 9 47 25 l18 24 -34 -6 c-19 -3 -36 -1 -40 6 -8 13 -26 15 -26 2z"/>
<path d="M1145 8649 c-4 -6 -5 -12 -2 -15 2 -3 7 2 10 11 7 17 1 20 -8 4z"/>
<path d="M14595 8638 c3 -13 11 -43 17 -68 6 -25 15 -50 20 -57 19 -23 -10
-22 -32 2 -29 31 -40 32 -40 2 0 -28 12 -43 72 -91 40 -32 49 -36 54 -22 4 9
-1 25 -10 35 -9 10 -16 24 -16 31 0 9 4 8 13 -4 25 -34 37 -14 17 27 -10 21
-16 45 -13 53 3 9 -9 29 -31 50 -20 19 -36 41 -36 49 0 8 -5 15 -11 15 -7 0
-9 -8 -4 -22z"/>
<path d="M390 8610 c19 -13 30 -13 30 0 0 6 -10 10 -22 10 -19 0 -20 -2 -8
-10z"/>
<path d="M15150 8613 c1 -5 9 -24 20 -43 l18 -35 11 29 c7 16 9 31 6 34 -3 3
-5 -1 -5 -9 -1 -9 -7 -6 -19 9 -19 22 -31 28 -31 15z"/>
<path d="M14885 8599 c-4 -6 -5 -13 -2 -16 7 -7 27 6 27 18 0 12 -17 12 -25
-2z"/>
<path d="M14730 8580 c-9 -6 -11 -21 -5 -55 9 -66 13 -74 48 -91 32 -17 32
-17 58 30 8 12 8 21 1 28 -11 11 10 54 33 70 15 12 -4 9 -26 -3 -14 -7 -24 -7
-32 0 -22 18 -63 29 -77 21z"/>
<path d="M15055 8499 c-8 -25 2 -37 35 -40 67 -6 83 18 28 45 -42 21 -55 20
-63 -5z"/>
<path d="M14530 8457 c0 -23 18 -40 35 -33 22 8 15 27 -13 37 -15 6 -22 5 -22
-4z"/>
<path d="M15095 8387 c-26 -33 -45 -79 -49 -118 -2 -30 -9 -45 -22 -50 -32
-13 -35 -10 -29 25 8 39 -10 58 -19 21 -4 -14 -13 -25 -20 -25 -8 0 -16 -7
-20 -15 -3 -8 -12 -15 -19 -15 -14 0 -20 -28 -33 -145 -5 -46 -23 -85 -38 -85
-7 0 -11 40 -11 117 0 123 -6 193 -16 193 -3 0 -11 -11 -17 -25 -7 -15 -8 -25
-2 -25 19 0 9 -45 -15 -72 -35 -40 -48 -36 -43 15 3 23 8 49 12 59 6 12 -2 23
-31 42 -21 15 -37 29 -35 33 8 16 -16 12 -37 -6 -12 -11 -36 -23 -52 -26 -35
-8 -36 -14 -4 -51 32 -37 31 -43 -5 -55 -16 -6 -28 -15 -25 -19 3 -5 0 -10 -6
-12 -8 -3 -8 -10 2 -26 17 -27 22 -27 34 0 14 30 31 33 38 7 6 -21 7 -21 32
-5 21 14 29 15 41 5 21 -17 17 -65 -7 -88 -13 -12 -17 -21 -10 -26 14 -8 14
-72 0 -80 -6 -4 -21 2 -33 14 -28 26 -43 27 -51 1 -3 -11 -11 -20 -16 -20 -5
0 -9 -5 -9 -11 0 -6 7 -9 15 -6 8 4 17 2 20 -3 3 -5 12 -7 20 -3 8 3 15 1 15
-3 0 -18 -16 -29 -40 -29 -19 0 -25 -5 -26 -23 -1 -12 -9 -31 -18 -41 -18 -20
-8 -35 16 -26 8 3 21 -1 28 -10 7 -8 18 -15 24 -15 7 0 22 -12 35 -26 19 -22
27 -25 62 -19 26 5 45 3 54 -5 22 -18 45 4 40 38 -3 15 -8 52 -13 82 -4 30
-13 64 -19 75 -22 39 24 74 55 43 7 -7 12 -31 12 -54 0 -48 19 -74 54 -74 30
0 46 18 46 52 0 21 -5 28 -20 28 -18 0 -29 28 -15 42 9 9 103 -25 99 -36 -2
-6 9 -18 25 -28 l29 -16 -1 56 -2 56 35 0 c32 1 35 -1 32 -26 -2 -22 2 -27 26
-33 39 -8 85 4 74 19 -22 29 -21 47 3 56 26 10 44 55 29 70 -5 5 -29 15 -53
24 -39 13 -45 13 -59 0 -10 -11 -18 -12 -25 -5 -18 18 -51 12 -87 -14 -29 -21
-36 -23 -49 -11 -9 7 -22 15 -30 18 -10 3 -5 12 16 33 16 17 32 38 36 47 6 18
67 54 67 40 0 -4 -7 -18 -16 -30 -15 -21 -14 -22 13 -22 18 0 33 8 41 21 11
17 20 20 47 15 30 -6 34 -4 37 16 2 13 10 23 18 23 8 0 14 -6 12 -14 -3 -12
-1 -12 15 -1 10 8 19 15 20 15 2 1 -6 20 -17 43 -11 22 -20 46 -20 51 0 6 -16
17 -35 25 -19 8 -35 22 -35 30 0 29 -56 46 -75 23z m67 -44 c30 -27 25 -34
-49 -57 -19 -6 -23 -4 -23 13 0 17 35 61 49 61 2 0 13 -7 23 -17z m-486 -78
c-5 -14 -9 -15 -21 -5 -12 10 -13 16 -4 27 15 18 34 1 25 -22z m284 -112 c-1
-15 -30 -46 -37 -40 -3 4 2 16 12 27 19 21 25 24 25 13z m260 -143 c0 -5 -6
-10 -14 -10 -8 0 -18 5 -21 10 -3 6 3 10 14 10 12 0 21 -4 21 -10z m-20 -40
c0 -5 -9 -10 -21 -10 -11 0 -17 5 -14 10 3 6 13 10 21 10 8 0 14 -4 14 -10z"/>
<path d="M14426 8343 c-11 -11 -6 -23 9 -23 8 0 15 4 15 9 0 13 -16 22 -24 14z"/>
<path d="M14542 8339 c2 -6 8 -10 13 -10 5 0 11 4 13 10 2 6 -4 11 -13 11 -9
0 -15 -5 -13 -11z"/>
<path d="M14395 8261 c-3 -5 -1 -12 4 -15 5 -3 11 1 15 9 6 16 -9 21 -19 6z"/>
<path d="M14910 8239 c0 -5 5 -7 10 -4 6 3 10 8 10 11 0 2 -4 4 -10 4 -5 0
-10 -5 -10 -11z"/>
<path d="M226 8195 c-22 -34 -20 -43 4 -15 18 21 26 40 16 40 -2 0 -11 -11
-20 -25z"/>
<path d="M14440 8170 c0 -5 5 -10 10 -10 6 0 10 5 10 10 0 6 -4 10 -10 10 -5
0 -10 -4 -10 -10z"/>
<path d="M12124 8064 c-22 -21 -25 -31 -19 -61 7 -40 38 -91 88 -145 50 -56
80 -50 35 7 -17 22 -19 31 -10 46 20 32 13 60 -23 96 -33 33 -34 36 -18 48 14
11 23 10 48 -1 l30 -15 -28 25 c-36 33 -71 33 -103 0z"/>
<path d="M1158 7915 c-16 -18 -28 -43 -28 -54 0 -12 -4 -19 -10 -16 -23 14 -8
-14 16 -30 21 -14 25 -22 20 -45 -3 -18 0 -32 9 -40 16 -13 35 -5 35 15 0 14
53 31 68 21 16 -10 35 11 27 30 -5 11 -9 28 -9 39 -1 12 -7 19 -16 17 -8 -2
-19 3 -25 11 -6 8 -19 16 -30 19 -16 3 -20 11 -18 36 2 40 -5 39 -39 -3z m70
-57 c-6 -18 -28 -21 -28 -4 0 9 7 16 16 16 9 0 14 -5 12 -12z"/>
<path d="M807 7864 c-9 -19 -15 -40 -11 -45 3 -5 0 -17 -7 -26 -12 -14 -9 -15
31 -8 58 10 69 16 40 27 -20 7 -22 13 -17 48 7 51 -11 53 -36 4z"/>
<path d="M1310 7835 c-8 -9 -8 -15 -2 -15 12 0 26 19 19 26 -2 2 -10 -2 -17
-11z"/>
<path d="M14414 7814 c4 -21 9 -68 12 -104 6 -68 9 -78 21 -66 11 11 7 89 -7
147 -15 61 -36 80 -26 23z"/>
<path d="M11341 7806 c-14 -14 -21 -32 -18 -40 8 -21 62 -53 112 -68 62 -18
69 -27 43 -55 l-22 -23 50 2 c45 3 49 1 52 -20 3 -22 4 -23 17 -5 23 29 18 44
-32 90 -42 38 -46 45 -35 63 14 22 7 28 -68 53 -25 8 -52 18 -60 21 -10 4 -25
-3 -39 -18z"/>
<path d="M747 7766 c-6 -16 19 -30 28 -16 7 11 -2 30 -15 30 -4 0 -10 -6 -13
-14z"/>
<path d="M12194 7744 c-10 -23 -13 -47 -8 -63 4 -14 6 -43 5 -63 -3 -43 10
-50 27 -14 6 14 22 32 36 41 21 14 24 22 20 53 -10 73 -12 78 -39 80 -21 1
-29 -5 -41 -34z"/>
<path d="M14326 7725 c4 -22 8 -56 10 -75 1 -19 3 -59 5 -87 1 -29 5 -53 7
-53 6 0 62 62 62 68 0 3 -9 19 -19 36 -11 17 -27 54 -36 81 -22 65 -40 84 -29
30z"/>
<path d="M975 7740 c3 -5 8 -10 11 -10 2 0 4 5 4 10 0 6 -5 10 -11 10 -5 0 -7
-4 -4 -10z"/>
<path d="M338 7723 c-10 -2 -18 -11 -18 -19 0 -20 14 -17 35 6 18 20 16 22
-17 13z"/>
<path d="M730 7714 c0 -10 -6 -14 -15 -10 -8 3 -21 -4 -30 -17 -8 -12 -23 -22
-33 -22 -10 0 -18 -9 -20 -23 -3 -19 -9 -23 -30 -20 -19 2 -27 -2 -27 -12 0
-24 44 -24 69 -1 l23 21 27 -31 c32 -36 43 -32 28 10 -9 26 -8 31 9 36 21 7
25 20 9 30 -7 4 -7 12 0 25 13 24 13 30 0 30 -5 0 -10 -7 -10 -16z"/>
<path d="M820 7689 c0 -17 5 -29 11 -27 6 2 10 7 9 12 -1 5 4 12 10 16 15 9 4
30 -16 30 -9 0 -14 -11 -14 -31z"/>
<path d="M510 7700 c-8 -5 -23 -7 -32 -4 -23 7 -23 -1 3 -37 21 -30 53 -41 43
-14 -4 8 -1 15 5 15 6 0 11 11 11 25 0 27 -6 30 -30 15z"/>
<path d="M970 7697 c0 -9 -3 -16 -7 -16 -37 6 -43 -2 -43 -51 0 -28 -6 -61
-14 -73 -23 -36 -26 -61 -10 -82 l15 -20 12 20 c7 11 12 25 12 30 0 6 6 28 12
50 18 64 34 148 28 153 -3 3 -5 -2 -5 -11z"/>
<path d="M41 7695 c1 -19 18 -51 18 -35 0 8 -4 22 -9 30 -5 8 -9 11 -9 5z"/>
<path d="M4583 7692 c-13 -2 -23 -7 -23 -11 0 -5 -12 -6 -26 -3 -20 4 -26 0
-31 -17 -5 -18 -10 -21 -35 -16 -27 6 -28 5 -22 -19 3 -14 2 -26 -3 -26 -8 0
-34 -58 -39 -89 -2 -7 -7 -18 -13 -24 -6 -6 -11 -15 -11 -20 0 -5 20 15 45 45
52 63 105 108 171 143 26 14 40 25 31 25 -8 0 -17 3 -19 8 -1 4 -13 6 -25 4z"/>
<path d="M12491 7664 c0 -11 3 -14 6 -6 3 7 2 16 -1 19 -3 4 -6 -2 -5 -13z"/>
<path d="M2 7640 c0 -14 2 -19 5 -12 2 6 2 18 0 25 -3 6 -5 1 -5 -13z"/>
<path d="M800 7623 c0 -17 -4 -35 -10 -38 -17 -10 -11 -21 15 -33 41 -19 48
-14 26 17 -21 29 -21 29 -1 34 11 3 20 12 20 21 0 10 -6 13 -16 9 -9 -3 -20 0
-25 8 -6 10 -9 4 -9 -18z"/>
<path d="M66 7589 c8 -67 -6 -99 -41 -99 -24 0 -25 -3 -25 -55 0 -31 4 -55 10
-55 6 0 29 9 51 21 38 19 41 23 35 52 -3 18 -8 61 -12 97 -4 36 -10 72 -15 80
-5 9 -6 -8 -3 -41z"/>
<path d="M495 7590 c-3 -5 -2 -16 1 -25 6 -14 3 -16 -14 -10 -13 4 -22 2 -22
-4 0 -19 49 -12 70 9 11 11 20 24 20 29 0 11 -49 11 -55 1z"/>
<path d="M11562 7540 c0 -14 2 -19 5 -12 2 6 2 18 0 25 -3 6 -5 1 -5 -13z"/>
<path d="M1013 7528 c-25 -12 -31 -51 -13 -78 9 -13 11 -13 20 0 5 8 10 23 10
33 0 10 5 27 10 38 12 21 6 23 -27 7z"/>
<path d="M1090 7530 c0 -5 5 -10 11 -10 5 0 7 5 4 10 -3 6 -8 10 -11 10 -2 0
-4 -4 -4 -10z"/>
<path d="M14500 7519 c0 -5 5 -7 10 -4 6 3 10 8 10 11 0 2 -4 4 -10 4 -5 0
-10 -5 -10 -11z"/>
<path d="M2156 7503 c-12 -12 -6 -33 9 -33 8 0 15 6 15 14 0 17 -14 28 -24 19z"/>
<path d="M15047 7489 c-3 -12 -2 -32 3 -45 6 -14 6 -43 1 -70 -12 -65 -40 -88
-32 -25 2 7 -2 10 -8 6 -6 -3 -11 -12 -11 -18 0 -7 -5 -19 -10 -27 -9 -13 -11
-13 -20 0 -8 13 -10 12 -10 -2 0 -12 8 -18 21 -18 13 0 18 -4 13 -12 -5 -8 -2
-9 11 -4 10 4 21 2 25 -5 11 -17 48 7 52 33 2 13 10 23 18 24 28 1 60 15 60
27 0 7 -7 20 -15 30 -14 20 -10 43 12 65 23 23 14 41 -24 51 -58 16 -80 14
-86 -10z"/>
<path d="M317 7483 c-4 -3 -7 -13 -7 -22 1 -13 3 -13 11 2 11 19 8 33 -4 20z"/>
<path d="M156 7465 c-10 -27 -7 -45 9 -62 21 -20 30 -10 15 16 -6 12 -9 25 -6
29 3 4 1 14 -3 21 -6 10 -10 9 -15 -4z"/>
<path d="M14850 7438 c-13 -17 -23 -45 -24 -62 -1 -21 -13 -42 -44 -73 -37
-38 -41 -45 -30 -63 15 -23 48 -27 48 -5 0 8 5 15 10 15 6 0 13 -7 16 -15 11
-29 41 -17 48 19 4 19 13 37 22 40 11 4 13 14 8 41 -5 27 -2 41 11 55 16 17
16 19 -4 30 -12 6 -21 20 -21 30 0 29 -13 25 -40 -12z"/>
<path d="M1143 7439 c-6 -6 -9 -18 -6 -26 4 -11 -1 -13 -23 -8 l-29 6 22 -19
c12 -11 20 -22 17 -25 -11 -11 16 -45 42 -51 32 -8 41 -2 25 17 -6 8 -9 22 -5
31 4 10 0 18 -10 22 -17 7 -22 44 -6 44 6 0 10 5 10 10 0 13 -23 13 -37 -1z"/>
<path d="M4530 7439 c0 -5 5 -7 10 -4 6 3 10 8 10 11 0 2 -4 4 -10 4 -5 0 -10
-5 -10 -11z"/>
<path d="M4477 7400 c-19 -16 -39 -30 -44 -30 -17 0 -83 -70 -83 -89 0 -11 -9
-23 -20 -26 -14 -5 -19 -12 -15 -25 4 -12 -1 -19 -16 -23 -11 -3 -18 -10 -15
-15 3 -5 -2 -20 -12 -33 -31 -40 -51 -89 -45 -106 4 -11 2 -14 -5 -9 -7 4 -12
2 -12 -5 0 -7 -10 -34 -22 -60 -16 -35 -30 -51 -48 -55 -91 -21 -140 -66 -140
-128 0 -39 -6 -42 -58 -27 -20 6 -32 6 -32 0 0 -5 -10 -9 -22 -9 -17 0 -13 -6
21 -31 68 -49 42 -66 -59 -39 -76 21 -90 31 -35 25 28 -4 59 -8 70 -11 19 -4
19 -4 1 8 -10 7 -31 23 -47 36 -36 29 -60 23 -132 -33 -38 -31 -62 -59 -77
-92 -11 -26 -28 -56 -38 -67 -16 -18 -16 -18 5 -8 12 7 24 17 26 24 3 7 6 1 6
-14 1 -14 4 -33 7 -42 7 -17 -66 -68 -94 -65 -9 1 -51 0 -92 -1 -67 -2 -71 -3
-41 -12 l34 -9 -39 -20 c-70 -35 -109 -125 -65 -149 29 -15 33 -12 20 11 -27
51 21 129 79 129 25 0 25 -1 6 -14 -29 -21 -27 -114 4 -155 12 -16 22 -33 22
-36 0 -11 -45 7 -66 27 l-22 20 -12 -37 c-11 -32 -10 -39 12 -70 27 -41 72
-65 122 -65 20 0 36 -3 36 -7 0 -14 -42 -92 -56 -103 -7 -7 -14 -23 -14 -35 0
-38 -11 -55 -35 -55 -52 0 -72 -22 -32 -35 19 -7 17 -8 -16 -14 -41 -7 -77
-48 -77 -88 0 -20 -2 -20 -30 -10 -24 9 -33 9 -45 -4 -14 -14 -13 -20 9 -62
31 -57 21 -61 -17 -7 -26 37 -47 51 -47 32 0 -4 12 -25 26 -45 34 -50 25 -57
-14 -12 -33 37 -49 44 -44 19 2 -8 -2 -14 -8 -14 -12 0 -14 -57 -1 -64 5 -3
11 -14 14 -25 4 -17 2 -18 -18 -9 -15 7 -21 16 -18 28 9 33 -13 57 -46 52 -35
-5 -37 -11 -16 -52 19 -37 4 -40 -19 -5 -9 14 -21 23 -26 20 -17 -11 -11 -20
28 -40 38 -21 62 -39 62 -49 0 -4 -8 -2 -17 3 -80 40 -121 52 -158 45 -39 -7
-49 -15 -115 -89 -28 -32 -35 -36 -38 -22 -5 25 -95 21 -144 -6 -26 -14 -47
-18 -73 -14 -26 4 -42 2 -52 -8 -8 -8 -30 -15 -49 -15 -18 0 -63 -10 -99 -21
-59 -20 -64 -23 -51 -38 9 -10 12 -22 7 -30 -6 -9 -10 -7 -14 9 -9 36 -31 17
-42 -38 -6 -28 -20 -62 -34 -76 -12 -13 -24 -36 -25 -50 -2 -36 -23 -32 -31 5
-5 23 -9 28 -16 18 -13 -21 -120 -21 -136 0 -8 10 -12 11 -13 4 0 -7 -19 -17
-42 -23 -59 -15 -128 -43 -128 -52 0 -5 -9 -8 -20 -8 -11 0 -20 -4 -20 -10 0
-5 8 -10 17 -10 11 0 5 -10 -21 -34 -25 -22 -34 -36 -27 -41 9 -5 9 -11 -1
-22 -10 -12 -9 -18 7 -30 30 -22 108 -10 164 27 26 16 57 30 69 30 12 0 37 14
56 31 20 17 41 28 48 26 8 -3 5 -6 -6 -6 -14 -1 -16 -4 -7 -14 13 -17 -4 -37
-32 -37 -10 0 -16 -4 -13 -8 2 -4 -18 -18 -45 -30 -27 -13 -47 -27 -44 -32 11
-18 104 -39 180 -41 86 -2 106 1 177 33 l46 21 34 -24 c25 -18 44 -23 78 -22
60 3 176 39 220 68 19 13 116 47 214 75 192 55 368 121 531 200 56 28 106 50
111 50 5 0 62 29 127 64 l117 64 0 -31 c0 -17 12 -50 26 -75 22 -37 24 -48 15
-69 -6 -13 -11 -35 -11 -48 0 -13 -5 -27 -10 -30 -14 -9 -60 -100 -60 -119 0
-24 -22 -66 -31 -60 -5 3 -9 0 -9 -6 0 -6 -4 -8 -10 -5 -5 3 -10 0 -10 -8 0
-8 -31 -35 -70 -61 -38 -25 -70 -52 -70 -59 0 -8 -3 -7 -10 3 -11 18 -22 8
-25 -23 -4 -33 -33 -65 -72 -82 -25 -11 -33 -21 -35 -42 -1 -15 -3 -39 -4 -53
-1 -14 -3 -33 -3 -43 -2 -36 -21 -5 -22 36 -1 23 -3 34 -6 24 -3 -10 -10 -14
-16 -11 -7 4 -9 4 -5 -1 9 -10 -10 -47 -21 -41 -12 8 -57 -44 -74 -85 -8 -21
-30 -45 -50 -58 -47 -29 -61 -72 -55 -175 4 -74 9 -90 47 -162 24 -43 52 -91
62 -106 l19 -26 -52 -107 -52 -107 20 -37 c20 -37 20 -37 1 -63 -26 -35 -15
-67 58 -157 64 -82 126 -127 210 -156 l60 -21 2 -44 c8 -160 48 -404 94 -569
l20 -74 -26 -116 c-35 -157 -39 -168 -107 -309 -57 -118 -87 -205 -123 -357
-28 -121 -66 -229 -86 -246 -10 -9 -15 -19 -12 -23 4 -3 -1 -6 -10 -6 -67 0
83 -121 178 -144 17 -4 38 -15 48 -23 10 -10 17 -12 17 -5 0 7 6 12 13 12 6 0
36 10 64 22 51 22 59 32 68 76 2 11 26 51 53 89 113 159 243 383 262 452 11
45 21 39 69 -39 5 -8 13 -28 18 -45 12 -40 61 -53 136 -36 66 16 88 12 104
-19 8 -15 13 -19 13 -10 0 9 -4 20 -8 25 -5 6 4 23 20 40 22 23 27 25 22 10
-4 -11 5 -4 20 15 15 19 29 45 31 58 3 12 7 34 10 48 7 33 29 26 35 -12 3 -18
12 -30 25 -33 15 -2 17 0 9 10 -6 8 -18 35 -28 62 -18 47 -30 58 -39 35 -3 -8
-9 -1 -16 15 -6 15 -15 27 -20 27 -5 0 -31 64 -56 142 -35 109 -58 160 -96
216 -27 41 -49 77 -49 81 0 4 63 77 141 162 77 85 167 190 201 234 l60 80 63
-3 c51 -3 76 2 141 28 98 39 134 37 153 -7 8 -18 24 -36 35 -40 33 -10 108 -6
178 11 34 8 95 20 133 27 80 13 122 35 183 93 52 49 82 105 82 151 0 37 9 42
42 24 57 -31 169 29 215 115 31 58 30 141 -2 141 -5 0 -40 4 -78 8 -66 7 -68
7 -91 -20 -14 -15 -27 -25 -31 -22 -3 4 1 14 10 22 23 23 18 37 -12 38 -19 1
-12 5 23 13 28 6 58 17 67 24 14 12 14 16 -5 37 -11 12 -27 22 -36 21 -28 -5
-54 50 -47 95 9 50 -1 78 -30 89 -18 7 -22 14 -17 32 5 21 4 22 -12 8 -17 -13
-17 -12 -4 20 18 43 13 70 -8 43 -12 -16 -14 -14 -15 20 -1 20 -2 40 -3 45 -1
4 -6 23 -10 42 -10 40 -30 73 -39 63 -4 -3 -7 6 -7 21 0 19 -6 29 -20 33 -11
3 -20 13 -20 23 0 9 -11 34 -25 54 -14 20 -25 45 -26 54 0 11 -2 13 -6 4 -6
-17 -27 21 -36 65 -12 62 -68 193 -82 193 -16 0 -45 50 -45 77 0 10 -8 29 -17
43 -13 18 -16 41 -15 93 3 59 7 74 36 115 19 26 37 58 41 70 9 30 55 132 60
132 7 0 127 -70 167 -98 24 -16 79 -60 122 -96 82 -68 259 -190 299 -205 12
-5 62 -32 110 -60 49 -28 119 -63 155 -77 37 -14 105 -41 152 -59 47 -18 104
-38 128 -45 23 -6 58 -24 76 -41 39 -34 162 -79 215 -79 20 0 58 13 87 29 44
24 54 26 70 14 10 -7 54 -27 98 -44 44 -17 116 -49 159 -70 82 -42 119 -46
125 -17 2 13 -1 16 -12 12 -11 -4 -16 -1 -16 11 0 9 -3 14 -7 12 -5 -3 -17 6
-28 20 -42 51 -51 59 -88 78 -35 19 -43 35 -20 42 6 2 18 -3 26 -12 10 -9 18
-11 22 -5 4 6 70 9 174 7 153 -2 171 0 190 17 11 10 18 23 15 27 -3 5 0 9 6 9
6 0 9 4 6 9 -3 5 -15 7 -26 4 -16 -4 -20 -1 -18 18 2 13 -2 24 -8 24 -6 0 -26
7 -45 16 -89 43 -127 56 -168 58 -24 1 -51 6 -60 10 -17 9 -110 6 -145 -5 -17
-5 -14 1 13 30 19 20 30 36 23 36 -7 0 -12 -4 -12 -9 0 -11 -93 -51 -119 -51
-12 0 -21 5 -21 11 0 5 -5 7 -11 3 -16 -9 4 25 30 53 34 36 21 120 -19 130
-11 3 -20 10 -20 15 0 6 -9 0 -21 -13 -11 -13 -18 -18 -14 -11 9 16 -12 41
-45 54 -54 22 -136 17 -126 -8 7 -18 -4 -17 -28 1 -19 15 -19 15 -1 28 26 19
3 31 -43 22 -30 -5 -35 -4 -24 6 6 7 12 17 12 22 0 12 -80 0 -97 -15 -18 -15
-16 2 3 23 21 23 10 39 -26 39 -29 0 -29 -1 -29 -56 1 -31 -3 -60 -9 -66 -6
-6 -10 9 -11 42 0 28 -6 60 -12 71 -10 19 -17 21 -62 16 l-52 -6 50 16 c41 14
46 17 25 21 -14 2 -44 10 -67 19 -38 14 -46 14 -93 -2 -28 -9 -54 -15 -56 -12
-3 3 4 8 15 12 28 9 27 29 -1 22 -12 -4 -41 -3 -65 0 l-44 6 42 18 c22 11 44
17 48 15 11 -7 77 18 76 29 0 6 -14 10 -32 9 -22 -1 -30 3 -26 12 6 18 -54 28
-125 21 l-57 -5 43 19 c23 11 42 24 42 30 0 17 -44 27 -105 21 -104 -8 -128
-7 -132 6 -4 9 14 12 64 13 37 1 79 5 93 9 l25 8 -28 1 c-24 1 -27 4 -22 21 6
18 2 20 -37 20 -48 0 -114 -30 -112 -51 1 -9 -10 -14 -29 -14 -17 0 -32 -6
-34 -13 -6 -16 56 -42 102 -42 20 0 34 -4 31 -8 -7 -12 -123 3 -141 18 -20 17
-19 49 3 56 48 16 122 57 122 67 0 8 16 11 48 9 46 -2 47 -2 21 12 -15 9 -41
18 -59 21 -27 5 -31 3 -26 -11 5 -13 2 -15 -16 -9 -13 4 -47 11 -76 15 -30 5
-56 11 -58 13 -7 7 115 19 126 12 14 -9 12 11 -2 23 -7 5 -38 18 -68 27 -30
10 -59 22 -64 26 -16 14 2 23 19 9 8 -7 23 -9 32 -5 17 6 17 7 1 16 -22 12
-23 25 -4 32 8 3 34 -12 60 -34 l46 -41 46 38 c52 43 74 80 74 124 0 34 8 37
50 15 36 -19 60 -62 60 -110 0 -44 -45 -95 -84 -95 -43 0 -36 -15 8 -18 35 -2
46 2 69 26 29 30 44 84 34 124 -7 28 -65 88 -104 109 -15 8 -45 31 -66 52 -22
20 -48 37 -58 37 -11 0 -19 7 -19 15 0 8 -13 21 -29 30 -40 20 -71 62 -71 96
0 32 15 37 45 15 14 -10 32 -11 60 -6 l40 8 -42 1 c-50 1 -88 31 -80 62 3 10
1 22 -4 25 -5 3 -8 25 -7 49 2 24 6 41 11 38 24 -14 -6 50 -38 83 -23 24 -91
64 -107 64 -10 0 -18 4 -18 9 0 5 -20 12 -45 15 -45 7 -58 19 -30 30 19 7 20
26 1 26 -8 0 -16 6 -19 13 -4 10 -7 10 -18 0 -20 -20 -55 -15 -85 10 -32 28
-27 41 22 62 19 8 34 19 34 26 0 8 -5 7 -17 -2 -15 -12 -16 -12 -9 6 18 45 19
134 2 169 -9 19 -16 39 -16 46 0 6 -9 23 -20 37 -11 14 -20 33 -20 43 0 19
-74 169 -92 185 -7 7 -9 1 -4 -20 4 -20 -15 2 -59 70 -39 59 -90 122 -125 153
-33 30 -60 57 -60 62 0 16 105 -42 143 -78 41 -40 47 -34 17 15 -23 39 -56 73
-70 73 -5 0 -10 10 -10 23 0 18 -2 19 -10 7 -9 -13 -12 -13 -20 2 -6 9 -17 15
-25 12 -10 -4 -15 0 -15 11 0 14 -3 15 -14 6 -10 -8 -21 -9 -33 -3 -10 5 -24
7 -31 5 -7 -3 -19 1 -27 7 -12 10 -15 10 -15 0 0 -8 -6 -10 -17 -5 -10 4 -34
7 -53 7 -19 0 -43 -3 -52 -7 -12 -5 -18 -3 -18 6 -1 9 -4 8 -11 -3 -5 -10 -16
-18 -23 -18 -8 0 -33 -11 -57 -24 -24 -14 -47 -22 -52 -19 -5 3 -15 -4 -23
-15 -8 -12 -21 -19 -29 -16 -9 4 -15 0 -15 -10 0 -21 -26 -20 -40 2 -10 15
-10 15 -6 -3 3 -11 1 -26 -3 -34 -8 -12 -12 -12 -25 -2 -14 12 -16 10 -16 -13
0 -28 -9 -33 -27 -15 -7 7 -9 2 -5 -18 5 -25 3 -26 -11 -15 -23 19 -57 94 -57
125 0 15 -5 27 -11 27 -15 0 -3 -54 26 -115 30 -61 18 -79 -18 -28 -31 43 -34
39 -12 -14 21 -50 11 -53 -17 -4 -13 22 -26 41 -30 41 -12 0 -9 -10 13 -46 11
-19 19 -42 17 -51 -2 -13 -8 -9 -24 18 -46 78 -35 119 63 242 29 37 52 67 49
67 -3 0 -21 -13 -39 -30z m527 -81 c50 -14 132 -90 147 -137 6 -21 15 -41 19
-47 5 -5 11 -27 15 -47 7 -35 5 -37 -21 -44 -16 -3 -42 -9 -58 -13 -16 -4 -32
-13 -34 -20 -3 -10 2 -11 19 -5 38 14 112 11 117 -4 3 -10 -9 -13 -50 -11 -59
2 -118 -23 -118 -51 0 -12 2 -12 9 -2 6 11 14 8 34 -12 24 -24 43 -31 73 -27
41 5 52 -105 17 -179 -12 -25 -24 -56 -28 -69 -4 -14 -44 -60 -89 -103 -95
-92 -132 -108 -204 -89 -56 15 -172 92 -216 143 -44 51 -86 137 -86 175 0 35
-14 52 -24 28 -9 -24 -42 -17 -54 10 -16 36 -15 41 6 22 35 -32 89 9 110 85 5
19 28 62 51 96 38 55 46 62 85 67 32 5 55 2 87 -12 59 -26 99 -36 99 -23 0 18
-83 52 -142 58 -32 2 -57 8 -56 11 19 38 89 141 110 161 45 45 111 59 182 39z
m-614 -225 c0 -8 -4 -12 -10 -9 -5 3 -10 13 -10 21 0 8 5 12 10 9 6 -3 10 -13
10 -21z m770 -158 c0 -3 -4 -8 -10 -11 -5 -3 -10 -1 -10 4 0 6 5 11 10 11 6 0
10 -2 10 -4z m-1040 -46 c-13 -8 -12 -10 3 -10 25 0 13 -16 -33 -45 -21 -13
-41 -34 -45 -45 -9 -29 -30 -19 -28 13 3 48 51 95 98 96 17 1 17 -1 5 -9z
m1340 -234 c0 -19 -9 -44 -20 -57 l-20 -24 15 37 c8 21 15 47 15 58 0 11 2 20
5 20 3 0 5 -15 5 -34z m-1742 -19 c-15 -12 -36 -42 -47 -67 -11 -25 -20 -37
-20 -27 -1 28 29 86 53 102 33 24 44 17 14 -8z m882 -44 c16 -27 31 -52 34
-58 2 -6 9 -5 17 3 11 10 18 6 41 -20 42 -50 61 -96 55 -134 -6 -38 -6 -38 42
-24 25 7 40 6 62 -6 36 -18 38 -44 4 -44 -14 0 -25 -4 -25 -9 0 -12 -58 -41
-82 -41 -10 0 -18 -4 -18 -9 0 -5 -18 -11 -40 -15 -21 -3 -43 -14 -49 -23 -7
-13 -12 -15 -23 -5 -11 8 -17 9 -26 0 -14 -14 -69 -13 -88 3 -8 6 -14 8 -14 4
0 -8 -72 35 -82 49 -4 6 -15 11 -25 11 -10 0 -18 7 -18 15 -1 8 -6 14 -13 13
-7 -2 -12 6 -12 17 0 11 -7 20 -16 20 -8 0 -12 5 -9 11 4 6 -1 16 -10 23 -12
9 -18 29 -20 67 -3 45 0 57 18 72 16 13 17 16 5 11 -22 -8 -23 9 -3 26 20 17
24 12 76 -90 23 -47 50 -92 59 -101 26 -26 104 -57 124 -49 15 5 7 11 -34 28
-29 12 -50 25 -47 29 4 3 -2 13 -13 20 -14 10 -19 21 -15 34 4 13 2 19 -9 19
-14 0 -18 11 -15 36 0 4 -5 10 -12 15 -16 10 -20 37 -7 45 6 4 5 10 -3 15 -10
6 -7 8 8 6 12 0 21 -4 20 -7 -3 -7 86 -120 117 -149 34 -32 44 -21 18 21 -32
54 -41 218 -11 218 5 0 22 -21 39 -47z m-625 -4 c11 -16 3 -17 -35 -3 l-35 12
32 1 c17 1 35 -4 38 -10z m1495 -18 c-6 -12 -15 -21 -21 -21 -5 0 -2 11 8 24
21 28 29 27 13 -3z m-335 -111 c3 -5 1 -10 -4 -10 -6 0 -11 5 -11 10 0 6 2 10
4 10 3 0 8 -4 11 -10z m-896 -17 c-1 -10 -1 -20 0 -23 1 -3 4 -21 6 -40 6 -56
83 -190 109 -190 8 0 19 -7 26 -15 7 -8 21 -15 31 -15 18 0 23 -10 20 -37 -1
-6 3 -15 9 -18 6 -4 11 -1 9 6 -6 46 9 51 35 12 9 -16 15 -20 12 -10 -3 11 0
17 10 17 8 0 12 -4 9 -10 -3 -5 0 -10 9 -10 8 0 16 5 18 11 3 8 10 5 22 -6 13
-14 20 -15 25 -6 5 8 20 10 42 6 47 -8 213 35 319 84 90 42 160 60 160 41 0
-6 -15 -17 -32 -25 -31 -13 -31 -14 -8 -15 24 -1 24 -1 6 -15 -11 -8 -28 -15
-39 -15 -10 0 -16 -4 -13 -9 7 -11 -39 -31 -74 -31 -17 0 -30 -4 -30 -9 0 -6
17 -8 38 -5 28 3 32 2 17 -5 -11 -5 -29 -10 -41 -10 -11 -1 -34 -8 -51 -16
-17 -8 -54 -17 -84 -18 -45 -3 -54 -7 -54 -23 0 -17 -7 -19 -65 -18 -121 1
-221 25 -280 69 -38 28 -59 33 -40 10 19 -23 -4 -18 -25 5 -13 15 -14 20 -4
20 7 0 -5 19 -28 43 -64 66 -112 181 -92 219 8 15 8 19 0 14 -15 -10 -14 27 1
42 17 17 30 15 27 -5z m891 -23 c0 -6 -11 -15 -25 -22 -13 -6 -22 -15 -19 -20
8 -12 -26 -49 -37 -42 -5 3 -9 -2 -9 -11 0 -8 -8 -19 -17 -22 -10 -4 -22 -13
-28 -20 -13 -16 -102 -63 -120 -63 -7 0 -15 -6 -18 -12 -3 -10 -7 -10 -20 1
-20 16 -6 41 23 41 10 0 20 7 24 15 4 11 13 14 33 9 24 -6 26 -5 16 8 -15 17
-8 28 18 28 9 0 19 7 23 15 3 8 17 15 31 15 15 0 24 5 23 13 -2 7 6 12 18 11
14 0 20 4 17 13 -3 7 5 22 18 33 26 21 49 26 49 10z m-180 -52 c0 -12 -24 -10
-38 4 -20 20 -13 28 13 16 14 -6 25 -15 25 -20z m-45 -8 c17 -19 17 -20 -1
-20 -10 0 -30 9 -44 20 l-25 20 26 0 c14 0 34 -9 44 -20z m595 -6 c0 -8 -7
-14 -16 -14 -8 0 -12 5 -9 10 3 6 1 10 -4 10 -6 0 -11 4 -11 9 0 5 9 7 20 4
11 -3 20 -12 20 -19z m-1990 1 c0 -12 -24 -55 -32 -55 -11 0 -10 17 2 41 9 17
30 27 30 14z m-63 -27 c-3 -8 -6 -5 -6 6 -1 11 2 17 5 13 3 -3 4 -12 1 -19z
m1633 -58 c0 -5 -2 -10 -4 -10 -3 0 -8 5 -11 10 -3 6 -1 10 4 10 6 0 11 -4 11
-10z m-867 -36 c21 -71 88 -167 173 -251 54 -53 66 -88 32 -96 -10 -3 -18 -1
-18 4 0 5 -15 19 -34 30 -30 18 -113 118 -160 193 -23 37 -36 161 -16 154 8
-2 18 -17 23 -34z m1522 30 c24 -10 45 -58 44 -101 l-1 -38 -7 35 c-8 38 -38
90 -52 90 -5 0 -9 5 -9 10 0 12 3 12 25 4z m15 -97 c0 -15 -5 -12 -23 14 -39
59 -41 65 -9 35 18 -17 32 -39 32 -49z m-2150 33 c0 -5 -5 -10 -11 -10 -5 0
-7 5 -4 10 3 6 8 10 11 10 2 0 4 -4 4 -10z m-67 -50 c-20 -35 -44 -45 -73 -30
-31 16 -24 30 15 30 19 0 40 7 47 15 23 25 30 16 11 -15z m-55 -50 c22 -7 23
-8 6 -9 -11 -1 -29 6 -40 15 -10 8 -13 12 -6 9 8 -4 26 -11 40 -15z m2136 -20
c8 -16 12 -30 10 -30 -14 0 -54 34 -54 46 0 25 28 15 44 -16z m30 -82 c9 -12
16 -26 16 -31 0 -13 -29 12 -41 35 -14 26 6 23 25 -4z m-34 -28 c0 -13 -7 -20
-20 -20 -22 0 -28 25 -7 33 22 10 27 7 27 -13z m-670 -4 c0 -7 -6 -29 -14 -47
-21 -53 -28 -74 -24 -75 2 0 -3 -8 -10 -17 -8 -9 -11 -21 -7 -27 3 -5 1 -10
-4 -10 -6 0 -11 -10 -11 -23 0 -21 -33 -162 -46 -197 -5 -12 -8 -11 -15 5 -6
14 -8 6 -7 -29 2 -32 -2 -51 -10 -54 -7 -2 -12 1 -12 7 0 6 -5 11 -10 11 -6 0
-10 -7 -8 -16 2 -10 -3 -19 -9 -21 -8 -3 -13 4 -13 16 0 11 -5 23 -11 27 -7 4
-10 -5 -7 -27 2 -25 -1 -35 -14 -37 -9 -2 -18 5 -21 15 -2 10 -3 6 -1 -9 2
-16 0 -28 -5 -28 -5 0 -55 -26 -111 -57 -80 -45 -111 -69 -141 -109 -21 -28
-50 -57 -64 -64 -32 -17 -85 -96 -85 -126 0 -33 16 -70 40 -94 21 -21 22 -21
35 -3 8 10 15 21 15 24 0 4 7 9 14 12 17 7 12 -14 -11 -48 -16 -23 -17 -35 -3
-35 6 0 16 12 23 27 6 15 21 36 32 48 11 11 28 31 37 45 16 24 17 24 17 4 1
-12 -10 -32 -24 -46 -26 -26 -70 -116 -62 -125 3 -2 13 8 23 24 63 101 127
193 131 189 3 -3 -23 -51 -57 -108 -78 -128 -73 -118 -61 -118 5 0 31 33 57
73 46 70 74 105 74 92 0 -12 -43 -91 -81 -148 -22 -32 -39 -61 -39 -65 0 -12
60 60 102 123 43 65 42 44 -2 -46 -16 -30 -48 -73 -71 -94 l-43 -39 -14 35
c-15 37 -56 102 -85 134 -41 45 -60 102 -52 162 7 56 103 406 125 453 41 89
138 221 175 238 13 6 27 22 31 36 3 13 12 27 20 30 9 3 12 1 9 -4 -3 -6 -1
-10 4 -10 6 0 12 8 12 18 1 16 2 16 6 0 6 -24 23 -23 23 1 0 12 11 23 29 29
26 9 28 8 24 -9 -3 -11 -9 -22 -14 -25 -5 -3 -6 3 -3 13 3 10 -2 6 -11 -9 -8
-15 -25 -32 -36 -39 -11 -6 -18 -13 -15 -16 3 -3 12 0 21 7 9 7 19 10 23 6 9
-10 -40 -47 -55 -41 -7 2 -13 -2 -13 -9 0 -8 -3 -22 -7 -32 -7 -18 1 -12 119
96 31 28 62 49 67 46 6 -4 13 5 17 19 6 26 24 35 24 13 0 -7 8 2 16 20 18 36
30 41 37 15 3 -11 5 -7 6 10 1 27 31 41 31 13z m845 -17 c18 -34 13 -48 -10
-29 -13 11 -22 60 -10 60 2 0 12 -14 20 -31z m-2 -107 c-6 -12 -48 15 -64 41
-30 50 -23 51 24 5 23 -24 41 -45 40 -46z m42 42 c30 -19 32 -34 7 -34 -21 0
-56 33 -45 43 9 10 10 9 38 -9z m38 -141 c29 -15 32 -24 17 -54 -7 -13 -21
-19 -42 -19 -23 0 -29 3 -21 11 8 8 3 18 -20 38 -53 48 -11 63 66 24z m-119
-42 c4 -5 -3 -7 -14 -4 -23 6 -26 13 -6 13 8 0 17 -4 20 -9z m-1394 -111 c0
-5 -4 -10 -10 -10 -5 0 -10 5 -10 10 0 6 5 10 10 10 6 0 10 -4 10 -10z m-1140
-35 c0 -9 -6 -12 -15 -9 -8 4 -15 10 -15 15 0 5 7 9 15 9 8 0 15 -7 15 -15z
m468 -59 c-4 -25 -27 -28 -41 -4 -8 12 -7 21 2 32 18 21 43 2 39 -28z m1912
-120 c0 -8 -7 -16 -15 -20 -17 -6 -18 -4 -9 18 8 20 24 21 24 2z m-623 -22 c7
-18 -11 -39 -25 -30 -12 7 -4 46 9 46 6 0 12 -7 16 -16z m1113 -94 c0 -5 -2
-10 -4 -10 -3 0 -8 5 -11 10 -3 6 -1 10 4 10 6 0 11 -4 11 -10z m70 -114 c0
-2 -8 -10 -17 -17 -16 -13 -17 -12 -4 4 13 16 21 21 21 13z m-4000 -24 c-1
-22 -22 -29 -82 -29 -38 0 -68 2 -68 5 0 3 7 10 16 16 17 13 134 19 134 8z
m4165 -22 c-16 -4 -41 -8 -55 -8 -22 0 -22 1 5 8 17 4 41 8 55 8 22 0 22 -1
-5 -8z m-4345 -10 c0 -5 -5 -10 -11 -10 -5 0 -7 5 -4 10 3 6 8 10 11 10 2 0 4
-4 4 -10z m4226 -8 c-9 -8 -96 -20 -96 -13 0 12 46 26 73 22 15 -2 26 -6 23
-9z m-111 -22 c-3 -5 -12 -10 -18 -10 -7 0 -6 4 3 10 19 12 23 12 15 0z m315
-20 c0 -5 -4 -10 -10 -10 -5 0 -10 5 -10 10 0 6 5 10 10 10 6 0 10 -4 10 -10z
m-2051 -32 c-8 -14 -14 -18 -17 -10 -4 13 17 46 25 38 3 -2 -1 -15 -8 -28z
m1711 -8 c0 -5 -7 -10 -16 -10 -8 0 -12 5 -9 10 3 6 10 10 16 10 5 0 9 -4 9
-10z m-1841 -175 c1 6 6 0 12 -13 9 -23 -12 -82 -29 -82 -36 1 -38 35 -9 155
l12 50 6 -60 c3 -33 7 -55 8 -50z m18 38 c-3 -10 -5 -4 -5 12 0 17 2 24 5 18
2 -7 2 -21 0 -30z m2703 -47 c0 -7 -8 -20 -17 -27 -16 -13 -17 -12 -4 4 9 12
10 17 2 17 -7 0 -9 5 -6 10 9 15 25 12 25 -4z m-2634 -72 c-4 -14 -9 -24 -12
-21 -3 2 -2 17 2 31 3 15 9 25 11 22 3 -3 2 -17 -1 -32z m-39 4 c-3 -8 -6 -5
-6 6 -1 11 2 17 5 13 3 -3 4 -12 1 -19z m986 -73 c1 -5 -6 -11 -15 -13 -11 -2
-18 3 -18 13 0 17 30 18 33 0z m-843 -37 c0 -25 -13 -37 -31 -27 -28 14 -24
37 6 35 14 0 25 -4 25 -8z m2640 -32 c0 -3 -4 -8 -10 -11 -5 -3 -10 -1 -10 4
0 6 5 11 10 11 6 0 10 -2 10 -4z m-2854 -53 c-11 -11 -19 6 -11 24 8 17 8 17
12 0 3 -10 2 -21 -1 -24z m105 -26 c-13 -13 -14 5 -3 43 l7 25 3 -29 c2 -16
-1 -33 -7 -39z m-28 39 c-6 -25 -11 -28 -31 -22 -32 11 -28 35 6 32 15 -2 26
-6 25 -10z m87 -10 c0 -8 10 -20 22 -28 12 -8 18 -19 14 -26 -10 -17 -26 -15
-26 3 0 8 -9 15 -19 15 -26 0 -31 10 -20 38 9 24 29 22 29 -2z m907 -8 c40
-43 142 -251 114 -234 -5 4 -17 28 -27 54 -21 56 -54 112 -101 170 -40 49 -31
57 14 10z m180 -260 c-3 -8 -6 -5 -6 6 -1 11 2 17 5 13 3 -3 4 -12 1 -19z
m339 -706 c-18 -16 -18 -16 -6 6 6 13 14 21 18 18 3 -4 -2 -14 -12 -24z
m-1256 3 c0 -8 -7 -15 -15 -15 -8 0 -15 7 -15 15 0 8 7 15 15 15 8 0 15 -7 15
-15z m-645 -505 c0 -8 -10 -16 -22 -18 -22 -3 -32 16 -16 32 12 11 38 2 38
-14z m498 -1035 c-3 -9 -8 -14 -10 -11 -3 3 -2 9 2 15 9 16 15 13 8 -4z"/>
<path d="M4718 7039 c-10 -5 -18 -16 -18 -24 0 -31 109 -61 125 -35 4 6 11 8
16 4 5 -3 7 -10 4 -15 -4 -5 2 -9 13 -9 15 0 18 7 17 32 -1 17 -10 37 -20 45
-22 15 -112 17 -137 2z m62 -39 c0 -5 -5 -10 -11 -10 -5 0 -7 5 -4 10 3 6 8
10 11 10 2 0 4 -4 4 -10z"/>
<path d="M4910 6770 c0 -5 7 -10 15 -10 8 0 15 5 15 10 0 6 -7 10 -15 10 -8 0
-15 -4 -15 -10z"/>
<path d="M4784 6689 c42 -36 62 -47 86 -48 8 -1 -1 7 -20 17 -18 11 -36 25
-39 33 -3 11 -1 11 10 3 20 -16 62 -24 77 -15 12 7 -7 13 -128 38 -22 5 -20 1
14 -28z"/>
<path d="M4945 6670 c3 -5 10 -10 16 -10 5 0 9 5 9 10 0 6 -7 10 -16 10 -8 0
-12 -4 -9 -10z"/>
<path d="M4984 6650 c0 -22 17 -26 47 -10 29 16 23 30 -14 30 -26 0 -33 -4
-33 -20z"/>
<path d="M4928 6623 c6 -2 18 -2 25 0 6 3 1 5 -13 5 -14 0 -19 -2 -12 -5z"/>
<path d="M4880 6596 c5 -5 28 -10 51 -12 23 -1 38 1 33 6 -12 11 -96 18 -84 6z"/>
<path d="M4610 6343 c0 -14 19 -38 25 -32 8 8 -5 39 -16 39 -5 0 -9 -3 -9 -7z"/>
<path d="M4858 6093 c7 -3 16 -2 19 1 4 3 -2 6 -13 5 -11 0 -14 -3 -6 -6z"/>
<path d="M4500 6080 c0 -5 6 -10 14 -10 8 0 23 -3 33 -6 16 -6 16 -5 -2 9 -23
19 -45 22 -45 7z"/>
<path d="M4570 6060 c0 -5 6 -10 13 -10 6 0 23 -3 37 -6 24 -6 25 -6 5 9 -22
18 -55 22 -55 7z"/>
<path d="M4675 6050 c-4 -6 3 -10 14 -10 25 0 27 6 6 13 -8 4 -17 2 -20 -3z"/>
<path d="M4762 5545 c0 -16 2 -22 5 -12 2 9 2 23 0 30 -3 6 -5 -1 -5 -18z"/>
<path d="M4361 5374 c0 -11 3 -14 6 -6 3 7 2 16 -1 19 -3 4 -6 -2 -5 -13z"/>
<path d="M286 7387 c-5 -15 -6 -31 -2 -34 11 -11 18 5 14 34 l-4 28 -8 -28z"/>
<path d="M800 7364 c0 -14 5 -34 11 -46 6 -11 12 -34 13 -52 2 -17 4 -37 5
-44 2 -20 21 -4 21 17 0 10 7 32 15 47 21 41 19 48 -19 78 -43 32 -46 32 -46
0z"/>
<path d="M12065 7380 c-8 -13 4 -33 40 -62 38 -31 66 -42 59 -23 -3 8 -14 17
-25 20 -21 7 -25 20 -8 30 7 5 4 14 -7 26 -18 20 -49 25 -59 9z"/>
<path d="M15335 7370 c-3 -5 1 -10 9 -10 9 0 16 5 16 10 0 6 -4 10 -9 10 -6 0
-13 -4 -16 -10z"/>
<path d="M205 7359 c-12 -19 5 -23 22 -6 16 16 16 17 1 17 -9 0 -20 -5 -23
-11z"/>
<path d="M680 7330 c-8 -15 -7 -27 5 -49 8 -16 19 -32 24 -35 8 -5 21 47 21
87 0 24 -37 22 -50 -3z"/>
<path d="M4480 7325 c0 -8 4 -15 10 -15 5 0 7 7 4 15 -4 8 -8 15 -10 15 -2 0
-4 -7 -4 -15z"/>
<path d="M4531 7324 c0 -11 3 -14 6 -6 3 7 2 16 -1 19 -3 4 -6 -2 -5 -13z"/>
<path d="M11950 7310 c0 -5 5 -10 11 -10 5 0 7 5 4 10 -3 6 -8 10 -11 10 -2 0
-4 -4 -4 -10z"/>
<path d="M12065 7310 c-3 -5 -1 -10 4 -10 6 0 11 5 11 10 0 6 -2 10 -4 10 -3
0 -8 -4 -11 -10z"/>
<path d="M546 7255 c-19 -20 -19 -18 -5 -49 9 -20 9 -29 -1 -41 -10 -12 -10
-15 3 -15 9 0 20 8 26 18 8 14 13 15 30 4 23 -14 26 -10 11 19 -6 10 -20 19
-30 19 -11 0 -20 7 -20 15 0 8 7 15 16 15 9 0 14 5 12 12 -7 19 -24 20 -42 3z"/>
<path d="M1184 7244 c-5 -20 -11 -24 -28 -20 -11 3 -30 8 -41 11 -14 4 -32 -5
-59 -30 -43 -38 -56 -43 -56 -20 0 8 9 15 20 15 11 0 20 7 20 15 0 8 -5 15
-12 15 -6 0 -19 7 -28 15 -16 14 -19 13 -34 -19 -22 -47 -20 -65 8 -75 13 -5
26 -19 29 -31 4 -17 12 -21 34 -18 26 3 28 1 27 -29 -2 -29 1 -33 25 -33 35 0
48 10 56 43 7 28 17 36 49 41 8 1 18 5 22 8 3 4 15 1 26 -5 16 -10 21 -9 29 6
7 12 17 16 30 12 26 -9 25 16 -2 33 -12 7 -18 16 -15 19 9 9 -24 43 -41 43 -7
0 -16 7 -19 15 -10 24 -33 17 -40 -11z"/>
<path d="M1350 7240 c-11 -20 -10 -25 6 -37 23 -17 34 -17 34 1 0 8 3 22 7 32
5 12 3 15 -6 9 -8 -4 -17 -2 -21 5 -6 9 -11 6 -20 -10z"/>
<path d="M12130 7246 c0 -9 7 -16 16 -16 17 0 14 22 -4 28 -7 2 -12 -3 -12
-12z"/>
<path d="M14690 7250 c0 -5 7 -10 16 -10 8 0 12 5 9 10 -3 6 -10 10 -16 10 -5
0 -9 -4 -9 -10z"/>
<path d="M12370 7235 c-10 -13 -9 -15 9 -15 12 0 21 6 21 15 0 8 -4 15 -9 15
-5 0 -14 -7 -21 -15z"/>
<path d="M4386 7213 c-6 -14 -5 -15 5 -6 7 7 10 15 7 18 -3 3 -9 -2 -12 -12z"/>
<path d="M707 7198 c-7 -25 7 -38 34 -31 17 5 17 7 2 29 -19 30 -29 30 -36 2z"/>
<path d="M12132 7211 c-11 -7 -10 -10 3 -15 20 -7 38 1 30 15 -7 11 -16 11
-33 0z"/>
<path d="M1401 7194 c0 -11 3 -14 6 -6 3 7 2 16 -1 19 -3 4 -6 -2 -5 -13z"/>
<path d="M15222 7199 c-13 -5 -28 -7 -32 -4 -14 9 -23 -16 -11 -28 8 -8 14 -8
23 1 7 7 22 12 35 12 13 0 23 4 23 9 0 16 -14 19 -38 10z"/>
<path d="M830 7175 c7 -9 15 -13 17 -11 7 7 -7 26 -19 26 -6 0 -6 -6 2 -15z"/>
<path d="M1910 7169 c-11 -19 -9 -20 17 -17 17 2 29 10 31 21 5 25 -35 22 -48
-4z"/>
<path d="M850 7138 c0 -9 5 -20 10 -23 13 -8 13 5 0 25 -8 13 -10 13 -10 -2z"/>
<path d="M5310 7130 c0 -13 18 -22 24 -11 3 5 -1 11 -9 15 -8 3 -15 1 -15 -4z"/>
<path d="M752 7113 c-9 -3 -7 -12 8 -30 13 -17 18 -34 14 -52 -8 -39 -8 -43 1
-78 4 -18 11 -33 16 -33 5 0 11 0 14 0 3 0 5 2 5 5 -1 3 8 17 20 32 12 16 20
41 20 64 0 31 -4 38 -22 41 -13 2 -29 15 -36 31 -13 27 -17 29 -40 20z m63
-112 c3 -5 1 -12 -5 -16 -5 -3 -10 1 -10 9 0 18 6 21 15 7z"/>
<path d="M11777 7078 c-3 -8 4 -13 18 -13 18 0 21 3 13 13 -6 6 -14 12 -18 12
-4 0 -10 -6 -13 -12z"/>
<path d="M5431 7070 c0 -3 6 -30 14 -60 10 -40 13 -47 14 -25 0 24 -26 105
-28 85z"/>
<path d="M295 7053 c11 -3 28 -12 38 -21 19 -17 32 -11 24 13 -4 10 -19 15
-44 14 -22 -1 -29 -3 -18 -6z"/>
<path d="M483 7045 c-7 -20 2 -29 21 -22 9 4 13 13 10 22 -8 19 -23 19 -31 0z"/>
<path d="M543 7035 c-3 -9 1 -23 9 -33 9 -9 14 -22 11 -28 -3 -9 36 -34 52
-34 15 0 1 46 -22 76 -31 38 -41 41 -50 19z"/>
<path d="M1163 7036 c3 -8 -3 -32 -14 -53 -11 -21 -19 -52 -17 -68 2 -34 -9
-58 -23 -50 -5 4 -9 15 -9 27 0 11 -8 30 -18 42 -14 19 -21 21 -35 12 -15 -9
-22 -6 -40 16 -15 19 -30 26 -47 24 -31 -3 -75 -45 -84 -80 -3 -14 -15 -30
-26 -36 -28 -15 -25 -24 14 -38 19 -7 45 -27 59 -45 21 -28 24 -40 20 -80 -4
-31 -2 -47 6 -47 6 0 11 9 11 21 0 11 7 34 17 49 15 27 15 29 -5 55 -40 50
-24 90 30 80 29 -6 39 -14 53 -46 16 -34 22 -39 51 -39 23 0 44 -10 67 -30 39
-34 47 -36 47 -14 0 8 14 27 30 41 17 13 30 28 30 31 0 4 -16 17 -35 30 -42
27 -45 42 -6 42 25 0 28 3 24 25 -3 13 -15 31 -28 39 -12 8 -31 35 -41 60 -11
25 -23 46 -28 46 -4 0 -6 -6 -3 -14z"/>
<path d="M1512 7013 c-12 -15 -23 -32 -23 -38 -1 -5 -2 -17 -3 -25 -1 -18 56
-70 77 -70 9 0 28 10 42 23 26 21 26 25 16 65 -7 23 -16 40 -21 37 -5 -3 -18
3 -30 15 -26 26 -32 25 -58 -7z"/>
<path d="M370 7015 c0 -15 39 -65 44 -56 8 12 -21 61 -35 61 -5 0 -9 -2 -9 -5z"/>
<path d="M30 6994 c0 -8 5 -12 10 -9 6 4 8 11 5 16 -9 14 -15 11 -15 -7z"/>
<path d="M83 7003 c-8 -2 -11 -14 -8 -26 7 -30 -29 -87 -55 -87 -15 0 -20 -7
-20 -26 0 -22 3 -24 23 -19 20 6 32 17 88 84 35 41 15 92 -28 74z"/>
<path d="M205 6990 c3 -5 13 -10 21 -10 8 0 12 5 9 10 -3 6 -13 10 -21 10 -8
0 -12 -4 -9 -10z"/>
<path d="M500 6976 c0 -9 7 -16 16 -16 17 0 14 22 -4 28 -7 2 -12 -3 -12 -12z"/>
<path d="M230 6960 c-12 -7 -12 -12 -3 -21 15 -15 26 -7 21 15 -2 11 -7 13
-18 6z"/>
<path d="M1406 6955 c-3 -8 -1 -15 4 -15 6 0 10 7 10 15 0 8 -2 15 -4 15 -2 0
-6 -7 -10 -15z"/>
<path d="M1680 6941 c-13 -26 -13 -41 3 -41 25 0 39 17 32 39 -8 26 -21 27
-35 2z"/>
<path d="M431 6926 c-10 -12 -7 -15 18 -14 33 1 41 12 15 22 -21 8 -20 8 -33
-8z"/>
<path d="M14690 6897 c0 -9 9 -21 20 -27 11 -6 20 -7 20 -2 0 5 -9 17 -20 27
-18 16 -20 16 -20 2z"/>
<path d="M128 6886 c-10 -7 -18 -21 -18 -30 0 -12 9 -16 43 -15 23 0 50 4 60
8 17 6 16 8 -7 19 -14 6 -26 16 -26 22 0 14 -32 12 -52 -4z"/>
<path d="M345 6870 c-3 -5 -1 -10 4 -10 6 0 11 5 11 10 0 6 -2 10 -4 10 -3 0
-8 -4 -11 -10z"/>
<path d="M282 6861 c-11 -7 -11 -9 1 -14 16 -6 27 0 27 15 0 10 -11 10 -28 -1z"/>
<path d="M1596 6863 c-11 -11 -6 -23 9 -23 8 0 15 4 15 9 0 13 -16 22 -24 14z"/>
<path d="M1317 6843 c12 -10 28 -33 34 -50 8 -24 17 -33 33 -33 12 0 27 -5 34
-12 6 -6 14 -9 18 -6 3 4 -4 16 -16 28 -11 11 -18 24 -16 29 3 4 -6 6 -21 3
-24 -4 -25 -3 -19 22 4 18 2 26 -6 26 -7 0 -24 3 -38 6 l-25 6 22 -19z"/>
<path d="M9576 6809 c-9 -23 -15 -43 -13 -46 3 -2 12 15 21 38 9 23 15 43 13
46 -3 2 -12 -15 -21 -38z"/>
<path d="M14656 6835 c-3 -8 -1 -15 4 -15 6 0 10 7 10 15 0 8 -2 15 -4 15 -2
0 -6 -7 -10 -15z"/>
<path d="M309 6743 c-1 -4 0 -18 1 -31 1 -13 -11 -37 -29 -58 -34 -38 -42 -88
-15 -98 23 -9 31 -7 16 3 -11 6 -6 16 20 40 26 24 39 30 60 25 21 -4 29 0 38
16 13 24 4 43 -10 21 -10 -17 -40 -7 -40 14 0 8 5 15 10 15 6 0 10 4 10 9 0
12 -60 55 -61 44z"/>
<path d="M15214 6725 c11 -41 -11 -104 -40 -115 -24 -10 -30 -21 -16 -34 4 -4
12 -22 19 -39 l12 -32 -1 30 c-2 33 22 105 34 105 11 0 21 65 13 89 -9 30 -29
26 -21 -4z"/>
<path d="M500 6700 c0 -5 4 -10 9 -10 6 0 13 5 16 10 3 6 -1 10 -9 10 -9 0
-16 -4 -16 -10z"/>
<path d="M140 6653 c0 -16 11 -44 24 -62 24 -32 25 -32 35 -12 9 15 8 26 0 43
-7 13 -15 30 -19 38 -4 8 -15 16 -24 18 -12 3 -16 -4 -16 -25z"/>
<path d="M1200 6652 c0 -6 -17 -28 -37 -49 -21 -22 -47 -56 -58 -76 -19 -36
-19 -37 0 -51 11 -9 28 -16 38 -16 15 0 15 3 5 20 -10 16 -9 24 9 47 16 22 27
27 52 25 20 -2 31 1 31 10 0 7 16 27 36 44 19 18 31 35 26 38 -20 12 -102 19
-102 8z"/>
<path d="M464 6611 c3 -5 15 -7 25 -4 13 3 21 -2 26 -16 8 -27 25 -18 18 9 -4
15 -14 20 -40 20 -19 0 -32 -4 -29 -9z"/>
<path d="M14940 6606 c0 -2 7 -7 16 -10 8 -3 12 -2 9 4 -6 10 -25 14 -25 6z"/>
<path d="M574 6565 c3 -21 16 -31 16 -12 0 9 -4 18 -9 21 -5 4 -8 -1 -7 -9z"/>
<path d="M6698 6539 c-24 -13 -23 -25 2 -32 20 -5 29 -37 11 -37 -5 0 -13 -9
-16 -20 -3 -11 -15 -20 -25 -20 -19 0 -33 -14 -36 -37 -1 -7 4 -13 11 -13 20
0 27 -32 26 -130 0 -68 3 -90 15 -94 7 -3 14 -12 14 -21 0 -8 4 -15 10 -15 17
0 24 -51 9 -61 -11 -7 -11 -9 -1 -9 9 0 11 -7 7 -22 -5 -16 -4 -20 3 -13 6 6
12 29 14 53 2 23 8 42 13 42 18 0 32 -14 39 -38 4 -12 18 -34 32 -49 l24 -26
23 25 c54 60 98 157 101 218 1 37 5 44 19 42 11 -2 17 4 17 17 0 32 -37 108
-57 116 -27 12 -106 14 -120 3 -9 -7 -24 -4 -50 9 -32 15 -38 23 -36 46 2 32
-12 77 -24 77 -5 0 -16 -5 -25 -11z m152 -369 c0 -20 5 -30 15 -30 18 0 38
-37 31 -56 -7 -18 -40 -13 -66 11 -30 27 -25 105 6 105 9 0 14 -11 14 -30z"/>
<path d="M7737 6534 c-14 -15 -6 -34 14 -34 11 0 29 -5 40 -11 19 -9 20 -8 17
18 -2 23 -8 29 -33 31 -17 2 -34 0 -38 -4z"/>
<path d="M378 6523 c7 -3 16 -2 19 1 4 3 -2 6 -13 5 -11 0 -14 -3 -6 -6z"/>
<path d="M1910 6511 c0 -4 6 -14 14 -21 8 -6 16 -24 18 -38 4 -37 22 -34 26 5
3 27 -2 34 -27 48 -17 8 -31 11 -31 6z"/>
<path d="M1455 6490 c-3 -5 -16 -10 -29 -10 -32 0 -46 -19 -46 -62 0 -27 4
-38 15 -38 8 0 24 -14 34 -31 l19 -30 10 29 c6 17 6 35 1 43 -5 9 1 23 19 42
26 27 26 28 5 33 -13 4 -20 11 -16 20 6 16 -3 19 -12 4z"/>
<path d="M137 6475 c-4 -8 -18 -15 -31 -15 -14 0 -31 -9 -40 -22 -22 -31 -21
-34 18 -34 29 0 35 5 50 39 9 22 15 41 13 44 -3 2 -7 -3 -10 -12z"/>
<path d="M1268 6453 c7 -3 16 -2 19 1 4 3 -2 6 -13 5 -11 0 -14 -3 -6 -6z"/>
<path d="M15311 6423 c-15 -54 -14 -83 4 -83 8 0 17 10 19 23 3 12 7 34 10 48
4 17 0 31 -8 39 -12 9 -17 5 -25 -27z"/>
<path d="M8967 6438 c-30 -16 -20 -38 18 -38 38 0 47 18 17 37 -12 7 -24 8
-35 1z"/>
<path d="M410 6422 c-16 -13 -21 -25 -16 -37 6 -16 8 -16 24 -3 9 8 25 18 35
21 21 8 18 31 -5 35 -8 2 -25 -6 -38 -16z"/>
<path d="M3320 6422 c-16 -13 -23 -31 -26 -67 l-3 -50 8 42 c4 24 18 54 31 68
27 29 22 33 -10 7z"/>
<path d="M7702 6418 c-7 -7 -12 -20 -12 -29 0 -10 -4 -21 -10 -24 -5 -3 -10
-29 -10 -57 0 -52 -24 -108 -47 -108 -7 0 -13 -7 -13 -16 0 -10 6 -14 15 -10
8 3 15 2 15 -2 0 -14 68 -40 78 -30 26 26 77 10 114 -37 16 -20 19 -32 11 -43
-14 -23 1 -89 44 -191 30 -71 40 -87 55 -83 22 5 23 20 3 42 -22 24 -36 104
-35 190 1 60 5 78 19 90 12 9 18 25 16 40 -2 14 -4 29 -4 33 -1 5 -10 5 -21 2
-14 -4 -22 -1 -27 10 -7 19 15 37 36 30 9 -4 11 0 6 12 -4 10 -9 25 -12 35 -3
9 -14 19 -26 22 -17 4 -19 8 -9 18 17 17 15 74 -4 92 -16 17 -26 14 -57 -12
-16 -15 -16 -16 3 -34 24 -23 25 -32 4 -52 -18 -19 -30 -20 -39 -6 -5 8 -11 7
-21 -1 -18 -15 -18 -15 -32 50 -9 41 -10 57 -1 65 8 8 13 7 16 -1 6 -17 23
-17 23 0 0 17 -62 21 -78 5z"/>
<path d="M906 6405 c-10 -8 -23 -12 -27 -9 -5 3 -9 -2 -9 -10 0 -24 18 -28 30
-6 6 11 17 20 25 20 8 0 15 5 15 10 0 14 -11 12 -34 -5z"/>
<path d="M2405 6410 c-2 -4 7 -12 21 -19 32 -14 34 -14 34 3 0 14 -47 28 -55
16z"/>
<path d="M15195 6397 c-26 -22 -27 -26 -17 -57 17 -48 15 -58 -17 -78 -21 -13
-27 -22 -21 -32 7 -11 12 -11 23 -2 12 10 16 9 20 -8 6 -22 29 -25 73 -10 28
10 29 13 26 63 -3 43 -8 55 -25 62 -16 7 -22 19 -23 42 0 44 -7 48 -39 20z"/>
<path d="M6536 6380 c-7 -38 -3 -45 19 -37 19 8 19 27 2 52 -13 17 -14 15 -21
-15z"/>
<path d="M675 6380 c-3 -5 1 -10 9 -10 9 0 16 5 16 10 0 6 -4 10 -9 10 -6 0
-13 -4 -16 -10z"/>
<path d="M778 6313 c-29 -34 -30 -43 -6 -41 13 1 33 -2 46 -6 22 -7 31 7 12
19 -6 4 -8 15 -5 26 8 25 -26 26 -47 2z"/>
<path d="M2514 6308 c3 -13 6 -26 6 -30 0 -5 12 -8 27 -8 25 0 25 1 10 18 -10
10 -17 24 -17 30 0 7 -7 12 -16 12 -12 0 -15 -6 -10 -22z"/>
<path d="M7288 6301 c-3 -20 1 -32 14 -40 15 -9 16 -15 7 -32 -15 -28 -4 -49
25 -49 14 0 28 -4 31 -10 3 -6 -4 -10 -18 -10 -25 0 -52 -22 -40 -33 3 -4 17
-7 29 -7 13 0 26 -5 30 -12 5 -7 12 1 19 22 10 30 8 43 -10 90 -12 30 -20 61
-17 68 2 6 -5 15 -15 18 -10 3 -25 9 -34 14 -14 7 -18 3 -21 -19z"/>
<path d="M902 6288 c-19 -19 -14 -30 10 -26 13 2 24 11 26 21 4 20 -18 23 -36
5z"/>
<path d="M8394 6290 c-21 -8 -40 -62 -29 -80 3 -5 2 -34 -3 -64 -8 -49 -7 -55
10 -59 16 -5 17 -12 12 -65 -5 -47 -3 -65 10 -83 9 -13 16 -35 16 -49 0 -14 5
-32 10 -40 9 -15 10 -8 14 97 2 40 16 36 16 -5 0 -50 27 -112 46 -105 11 4 10
10 -3 29 -14 22 -14 32 2 114 10 50 22 93 27 96 5 3 6 14 3 25 -4 12 -1 21 9
25 33 13 4 153 -31 154 -7 0 -13 5 -13 10 0 12 -66 12 -96 0z m13 -36 c-9 -9
-28 6 -21 18 4 6 10 6 17 -1 6 -6 8 -13 4 -17z m-17 -144 c0 -5 -4 -10 -10
-10 -5 0 -10 5 -10 10 0 6 5 10 10 10 6 0 10 -4 10 -10z m90 -90 c0 -11 -30
-21 -41 -14 -15 9 10 34 27 27 8 -3 14 -9 14 -13z"/>
<path d="M2465 6280 c3 -5 8 -10 11 -10 2 0 4 5 4 10 0 6 -5 10 -11 10 -5 0
-7 -4 -4 -10z"/>
<path d="M859 6269 c0 -2 -3 -23 -5 -45 l-5 -42 47 -7 c57 -8 68 1 53 43 -13
37 -20 39 -37 12 -13 -22 -37 -17 -28 5 3 8 -2 19 -10 25 -8 7 -14 11 -15 9z"/>
<path d="M2350 6262 c0 -12 19 -26 26 -19 2 2 -2 10 -11 17 -9 8 -15 8 -15 2z"/>
<path d="M2582 6259 c2 -6 8 -10 13 -10 5 0 11 4 13 10 2 6 -4 11 -13 11 -9 0
-15 -5 -13 -11z"/>
<path d="M672 6240 c-41 -9 -49 -17 -35 -31 8 -8 20 -8 42 -1 17 6 46 8 66 5
23 -4 35 -2 35 6 0 7 -9 9 -25 5 -18 -4 -27 -1 -31 10 -3 9 -9 16 -13 15 -3
-1 -21 -5 -39 -9z"/>
<path d="M1070 6235 c-7 -8 -19 -15 -26 -15 -18 0 -8 -50 12 -66 8 -6 14 -19
14 -28 0 -30 21 -16 40 27 25 53 25 74 1 87 -25 13 -26 13 -41 -5z"/>
<path d="M2693 6235 c-9 -25 4 -29 17 -6 7 15 7 21 0 21 -6 0 -13 -7 -17 -15z"/>
<path d="M505 6170 c-10 -11 -24 -20 -31 -20 -20 0 -47 -31 -36 -42 9 -9 87
37 112 67 20 24 -23 20 -45 -5z"/>
<path d="M8855 6129 c-11 -17 1 -21 15 -4 8 9 8 15 2 15 -6 0 -14 -5 -17 -11z"/>
<path d="M9034 6084 c-9 -12 -30 -25 -49 -28 -19 -4 -35 -12 -35 -18 0 -17 61
-68 81 -68 10 0 21 -9 24 -20 4 -11 11 -18 16 -15 5 4 9 1 9 -6 0 -7 7 -4 15
7 8 10 14 30 15 44 0 18 -3 21 -9 11 -7 -11 -9 -11 -13 0 -3 8 5 22 16 31 19
16 19 19 5 31 -9 6 -19 21 -23 33 -8 27 -34 26 -52 -2z m46 -24 c0 -5 -4 -10
-10 -10 -5 0 -10 5 -10 10 0 6 5 10 10 10 6 0 10 -4 10 -10z"/>
<path d="M730 6061 c-19 -11 -46 -31 -59 -45 -13 -14 -28 -23 -32 -20 -5 3 -9
-2 -9 -10 0 -20 1 -20 48 -1 22 9 46 29 56 46 17 29 19 30 37 13 10 -9 19 -25
19 -36 0 -27 25 -22 38 7 17 37 15 42 -19 54 -40 14 -37 14 -79 -8z"/>
<path d="M7237 6022 c-2 -26 -9 -62 -15 -80 -9 -28 -9 -33 3 -28 9 3 15 -1 15
-10 0 -10 -6 -14 -15 -10 -23 9 -41 -43 -21 -62 13 -13 16 -10 30 23 9 21 16
41 16 45 0 4 11 33 25 64 34 77 33 100 -4 103 -28 2 -29 0 -34 -45z"/>
<path d="M7344 6064 c-9 -4 -8 -16 1 -48 7 -23 16 -73 20 -109 7 -67 26 -100
46 -80 13 13 -15 208 -32 229 -12 15 -16 16 -35 8z"/>
<path d="M350 6030 c0 -5 7 -10 15 -10 8 0 15 5 15 10 0 6 -7 10 -15 10 -8 0
-15 -4 -15 -10z"/>
<path d="M6723 5965 c0 -22 2 -30 4 -17 2 12 2 30 0 40 -3 9 -5 -1 -4 -23z"/>
<path d="M7736 5918 c-11 -41 -7 -78 9 -78 13 0 35 55 35 88 0 22 -37 13 -44
-10z"/>
<path d="M8431 5810 c-1 -8 -4 -26 -7 -40 -5 -19 -4 -22 5 -14 7 6 11 24 8 40
-2 16 -5 22 -6 14z"/>
<path d="M108 5713 c7 -3 16 -2 19 1 4 3 -2 6 -13 5 -11 0 -14 -3 -6 -6z"/>
<path d="M520 5649 c0 -5 5 -7 10 -4 6 3 10 8 10 11 0 2 -4 4 -10 4 -5 0 -10
-5 -10 -11z"/>
<path d="M190 5630 c0 -5 5 -10 11 -10 5 0 7 5 4 10 -3 6 -8 10 -11 10 -2 0
-4 -4 -4 -10z"/>
<path d="M271 5631 c-19 -12 -5 -66 24 -85 21 -14 24 -13 39 3 20 22 20 26 0
45 -8 9 -11 16 -5 16 6 0 8 7 5 15 -7 16 -41 20 -63 6z"/>
<path d="M103 5613 c-4 -10 -12 -22 -20 -26 -7 -4 -13 -15 -13 -22 0 -17 26
-20 36 -4 3 6 17 9 30 6 13 -2 24 0 24 5 0 5 12 14 28 20 l27 12 -30 4 c-16 2
-34 8 -39 13 -16 14 -36 11 -43 -8z"/>
<path d="M1018 5613 c7 -3 16 -2 19 1 4 3 -2 6 -13 5 -11 0 -14 -3 -6 -6z"/>
<path d="M5975 5594 c-47 -27 -51 -52 -13 -73 25 -15 55 -8 32 7 -17 11 -26
49 -14 57 6 4 18 -1 25 -11 14 -18 14 -18 15 -1 0 14 5 17 20 12 26 -8 26 11
1 25 -23 12 -17 13 -66 -16z"/>
<path d="M1021 5584 c0 -11 3 -14 6 -6 3 7 2 16 -1 19 -3 4 -6 -2 -5 -13z"/>
<path d="M516 5545 c-14 -13 -41 -27 -59 -30 -30 -6 -36 -12 -50 -58 -9 -28
-14 -53 -12 -56 3 -2 5 1 5 7 0 7 12 12 26 12 16 0 23 4 18 12 -5 8 0 9 15 5
17 -4 24 0 31 17 9 26 91 58 97 39 3 -7 17 2 34 19 34 36 36 41 10 33 -10 -3
-24 1 -31 10 -18 22 -53 18 -84 -10z"/>
<path d="M920 5550 c0 -5 7 -10 16 -10 8 0 12 5 9 10 -3 6 -10 10 -16 10 -5 0
-9 -4 -9 -10z"/>
<path d="M960 5551 c0 -6 4 -11 9 -11 5 0 8 -11 6 -25 -1 -14 2 -28 6 -31 8
-5 13 12 12 43 0 6 7 9 16 6 11 -4 13 -3 6 4 -15 16 -55 26 -55 14z"/>
<path d="M99 5525 c-2 -37 -3 -43 -11 -51 -16 -16 -6 -30 36 -53 45 -23 66
-22 66 5 0 8 5 14 10 14 17 0 11 26 -10 45 -12 10 -19 24 -16 31 3 9 -1 11
-11 7 -9 -4 -19 1 -25 10 -14 26 -38 21 -39 -8z"/>
<path d="M2779 5471 c-19 -16 -20 -20 -8 -21 17 0 45 27 37 35 -3 3 -16 -3
-29 -14z"/>
<path d="M0 5425 c0 -30 11 -32 33 -7 19 21 13 32 -15 32 -13 0 -18 -7 -18
-25z"/>
<path d="M650 5424 c0 -8 5 -12 10 -9 6 3 10 10 10 16 0 5 -4 9 -10 9 -5 0
-10 -7 -10 -16z"/>
<path d="M112 5368 c3 -7 13 -15 22 -16 12 -3 17 1 14 10 -3 7 -13 15 -22 16
-12 3 -17 -1 -14 -10z"/>
<path d="M6260 5200 c-8 -5 -10 -10 -5 -10 6 0 17 5 25 10 8 5 11 10 5 10 -5
0 -17 -5 -25 -10z"/>
<path d="M7157 4789 c7 -7 27 -13 45 -14 18 -2 53 -7 78 -13 202 -45 220 -47
220 -23 0 6 -6 8 -13 5 -8 -3 -35 4 -60 15 -26 11 -78 23 -115 26 -37 3 -89 8
-117 11 -40 4 -47 3 -38 -7z"/>
<path d="M4095 1920 c3 -5 14 -10 23 -10 15 0 15 2 2 10 -20 13 -33 13 -25 0z"/>
<path d="M4325 1881 c6 -38 12 -48 22 -38 3 4 -1 22 -11 40 l-17 32 6 -34z"/>
<path d="M4110 1837 c0 -19 64 -47 103 -46 31 1 31 1 -10 12 -23 7 -50 20 -60
30 -23 20 -33 22 -33 4z"/>
<path d="M4294 1818 l-19 -23 23 19 c12 11 22 21 22 23 0 8 -8 2 -26 -19z"/>
<path d="M4290 1779 c-8 -5 -27 -9 -42 -9 -23 0 -26 -4 -26 -37 0 -46 -6 -80
-15 -89 -12 -12 -8 -24 8 -24 10 0 15 10 15 34 0 41 22 66 56 66 29 0 94 31
113 54 20 23 7 20 -47 -14 -57 -35 -61 -35 -88 -14 -19 15 -18 15 3 11 12 -3
30 1 39 8 20 14 5 28 -16 14z"/>
<path d="M4450 1760 c0 -5 5 -10 10 -10 6 0 10 5 10 10 0 6 -4 10 -10 10 -5 0
-10 -4 -10 -10z"/>
<path d="M4271 1687 c-34 -17 -41 -42 -10 -34 13 4 31 7 41 7 11 0 15 6 11 20
-6 23 -10 24 -42 7z"/>
<path d="M4683 1614 c-73 -108 -107 -174 -144 -277 -16 -45 -44 -98 -65 -124
-71 -87 -186 -153 -266 -153 -41 0 -50 4 -73 33 -16 20 -23 25 -19 12 10 -28
45 -65 70 -75 14 -6 43 -3 75 6 77 20 92 19 79 -6 -13 -24 -79 -70 -101 -70
-9 0 -20 10 -25 23 -6 18 -8 14 -11 -22 -4 -38 -1 -48 19 -62 42 -32 68 -33
99 -3 16 15 29 23 29 16 0 -7 7 -9 17 -5 11 4 12 8 5 11 -26 8 -9 39 66 116
95 99 181 197 221 253 16 22 35 44 41 48 5 3 8 11 5 16 -4 5 -2 9 3 9 6 0 19
20 31 45 12 25 25 45 30 45 4 0 8 14 9 31 1 24 -2 29 -11 20 -34 -34 -30 11 5
61 18 26 18 29 2 60 -9 18 -20 44 -24 57 -5 22 -12 16 -67 -65z m27 -156 c0
-21 -159 -228 -175 -228 -11 0 -11 6 0 38 7 20 21 64 30 96 22 76 51 106 105
106 25 0 40 -5 40 -12z m-270 -346 c0 -14 -39 -46 -47 -39 -3 4 2 16 12 27 19
21 35 26 35 12z"/>
<path d="M4373 1673 c9 -2 23 -2 30 0 6 3 -1 5 -18 5 -16 0 -22 -2 -12 -5z"/>
<path d="M4210 1574 c0 -8 5 -12 10 -9 6 4 8 11 5 16 -9 14 -15 11 -15 -7z"/>
<path d="M3195 1519 c-4 -6 -5 -12 -2 -15 2 -3 7 2 10 11 7 17 1 20 -8 4z"/>
<path d="M4211 1514 c0 -11 3 -14 6 -6 3 7 2 16 -1 19 -3 4 -6 -2 -5 -13z"/>
<path d="M4195 1400 c-3 -5 -1 -10 4 -10 6 0 11 5 11 10 0 6 -2 10 -4 10 -3 0
-8 -4 -11 -10z"/>
<path d="M3117 1317 c-3 -7 4 -19 15 -26 11 -7 17 -8 13 -2 -3 6 -1 11 6 11 8
0 8 4 -1 15 -15 19 -26 19 -33 2z"/>
<path d="M3395 1310 c3 -5 8 -10 11 -10 2 0 4 5 4 10 0 6 -5 10 -11 10 -5 0
-7 -4 -4 -10z"/>
<path d="M3470 1310 c0 -5 5 -10 10 -10 6 0 10 5 10 10 0 6 -4 10 -10 10 -5 0
-10 -4 -10 -10z"/>
<path d="M3453 1280 c-45 -10 -67 -34 -53 -59 5 -11 10 -29 10 -40 0 -12 5
-21 11 -21 7 0 9 10 5 26 -6 24 -5 26 16 21 19 -5 27 1 45 32 12 21 19 41 16
45 -7 7 -6 7 -50 -4z"/>
<path d="M3200 1249 c0 -18 39 -71 40 -54 0 6 -9 24 -20 40 -13 20 -20 24 -20
14z"/>
<path d="M3070 1220 c0 -5 5 -10 11 -10 5 0 7 5 4 10 -3 6 -8 10 -11 10 -2 0
-4 -4 -4 -10z"/>
<path d="M3316 1213 c12 -10 24 -26 27 -35 4 -10 11 -18 18 -18 21 0 25 53 4
56 -5 1 -23 5 -40 9 -30 7 -30 7 -9 -12z"/>
<path d="M3285 1142 c12 -12 40 -22 73 -26 65 -8 68 5 5 21 -27 7 -59 15 -73
19 l-25 7 20 -21z"/>
<path d="M3035 1130 c3 -5 8 -10 11 -10 2 0 4 5 4 10 0 6 -5 10 -11 10 -5 0
-7 -4 -4 -10z"/>
<path d="M3267 1105 c21 -28 36 -32 31 -9 -2 9 -13 21 -26 25 -22 8 -22 8 -5
-16z"/>
<path d="M3005 1089 c-4 -6 -5 -12 -2 -15 2 -3 7 2 10 11 7 17 1 20 -8 4z"/>
<path d="M3337 1079 c6 -22 23 -26 23 -5 0 8 -6 16 -14 19 -10 4 -12 0 -9 -14z"/>
<path d="M3300 1009 c0 -5 5 -7 10 -4 6 3 10 8 10 11 0 2 -4 4 -10 4 -5 0 -10
-5 -10 -11z"/>
<path d="M3250 960 c0 -5 5 -10 10 -10 6 0 10 5 10 10 0 6 -4 10 -10 10 -5 0
-10 -4 -10 -10z"/>
<path d="M3399 872 c-48 -48 -95 -100 -105 -117 -35 -57 -96 -113 -143 -134
-61 -26 -231 -55 -283 -48 -51 7 -116 50 -134 90 l-15 32 5 -44 c3 -31 13 -52
36 -76 l32 -33 -31 -55 c-38 -67 -39 -85 -3 -93 15 -3 33 -7 40 -10 7 -2 10 1
6 7 -4 8 5 9 32 5 30 -5 64 2 144 28 115 37 308 110 317 120 26 26 -44 5 -222
-69 -42 -17 -220 -75 -231 -75 -14 0 203 119 294 161 45 21 112 60 148 86 36
26 102 71 147 98 44 28 83 56 85 62 7 25 -27 24 -65 -1 -48 -33 -68 -34 -26
-1 21 17 37 43 48 78 9 28 19 58 21 65 12 28 -15 6 -97 -76z m-74 -126 c-10
-14 -22 -26 -27 -26 -10 0 -3 16 20 43 22 25 27 13 7 -17z m-441 -212 c25 -10
19 -20 -29 -45 -35 -18 -47 -21 -56 -12 -10 10 -10 18 -1 38 12 25 48 33 86
19z"/>
<path d="M3318 483 c7 -3 16 -2 19 1 4 3 -2 6 -13 5 -11 0 -14 -3 -6 -6z"/>
<path d="M3360 465 c-19 -7 -28 -13 -20 -13 8 0 31 6 50 13 19 7 28 13 20 13
-8 0 -31 -6 -50 -13z"/>
<path d="M3265 440 c-25 -11 1 -11 35 0 20 6 21 8 5 8 -11 0 -29 -3 -40 -8z"/>
<path d="M3108 423 c7 -3 16 -2 19 1 4 3 -2 6 -13 5 -11 0 -14 -3 -6 -6z"/>
<path d="M3196 421 c-4 -5 3 -7 14 -4 23 6 26 13 6 13 -8 0 -17 -4 -20 -9z"/>
<path d="M3028 406 c-20 -6 -40 -14 -44 -18 -4 -5 -25 -8 -46 -8 -36 0 -37 -1
-26 -20 19 -31 42 -33 95 -11 26 12 75 30 108 40 41 14 49 18 24 15 -22 -4
-40 -1 -43 5 -8 13 -19 13 -68 -3z m70 -11 c-2 -1 -16 -5 -33 -9 -28 -7 -29
-6 -10 7 10 8 25 12 33 10 7 -3 12 -7 10 -8z"/>
<path d="M3167 364 c-4 -4 -4 -10 -1 -15 6 -10 34 0 34 12 0 10 -24 12 -33 3z"/>
<path d="M2970 304 l-25 -14 31 0 c19 0 34 6 38 15 7 18 -10 18 -44 -1z"/>
</g>
</svg>
